<svg xmlns="http://www.w3.org/2000/svg" viewBox="0 0 213.83 174.1"><g id="Calque_2" data-name="Calque 2"><g id="Calque_2-2" data-name="Calque 2"><path d="M0,157.19a16.78,16.78,0,0,1,16.51-17,17,17,0,0,1,0,33.9A16.72,16.72,0,0,1,0,157.19Zm28.86,0c0-8.73-4.23-15.78-12.35-15.78S4.16,148.46,4.16,157.19s4.1,15.7,12.35,15.7S28.86,165.91,28.86,157.19Z" style="fill:#fff"/><path d="M39,173.09V173c1.27-2.35,1.47-4.3,1.47-7.85V148.53a5.68,5.68,0,0,0-2.95-5v-.13l6-3.49V146l.27.06a15.71,15.71,0,0,1,12.08-5.84c6.24,0,9.4,3.7,9.4,9.8v15c0,3.69.06,5.7,1.47,7.92v.13H60.47V173c1.28-2.35,1.48-4.43,1.48-7.85V150.74c0-4.5-1.88-7.92-7.52-7.92a14.48,14.48,0,0,0-10.6,4.43V165c0,3.56.06,5.57,1.47,7.92v.13Z" style="fill:#fff"/><path d="M74.5,165.11V148.46a5.74,5.74,0,0,0-3-5v-.13l6.31-3.49V165c0,3.56.06,5.57,1.47,7.92v.13H73V173C74.3,170.61,74.5,168.6,74.5,165.11ZM76,131.61a2.75,2.75,0,1,1,2.75-2.75A2.73,2.73,0,0,1,76,131.61Z" style="fill:#fff"/><path d="M87.72,165.11V148.53a5.68,5.68,0,0,0-3-5v-.13l6-3.49V148l.33.07c3.23-3.22,6-7.86,10.88-7.86v5.37h-.14a11.78,11.78,0,0,0-4.9-1c-1.07,0-3.75,2.55-5.9,5V165c0,3.56.06,5.57,1.47,7.92v.13h-6.3V173C87.52,170.61,87.72,168.66,87.72,165.11Z" style="fill:#fff"/><path d="M124.44,169.34a15.15,15.15,0,0,1-10.61,4.76c-4.77,0-7.85-2.55-7.85-6.85,0-7.85,10.8-11.27,18.46-12v-6.18c0-3.55-1.68-6.84-7.59-6.84a17,17,0,0,0-9.4,2.95l-.33-.47a16.38,16.38,0,0,1,11.68-4.5c7.45,0,9,3.9,9,8.19v20.27c0,1.82.81,2.89,2.62,2.89a4.4,4.4,0,0,0,3.22-1.61l.2.13a5.36,5.36,0,0,1-5.1,3.83C125.84,173.9,124.5,172,124.44,169.34Zm0-1.15V156.31c-7.25.88-15,3.83-15,10,0,3.15,1.81,5.37,6,5.37A13.29,13.29,0,0,0,124.44,168.19Z" style="fill:#fff"/><path d="M136.78,173.09V173c1.28-2.22,1.55-4.16,1.55-7.72V148.66a5.91,5.91,0,0,0-3-5.23v-.14l6.1-3.56V146l.27.06a13,13,0,0,1,10.81-5.84c4.56,0,6.64,2.15,7.45,5.91l.2.07a13.12,13.12,0,0,1,10.88-6c5.7,0,7.58,3.49,7.58,9.13v15.84c0,3.7.14,5.57,1.48,7.79v.13h-6.31V173c1.27-2.22,1.47-4.3,1.47-7.72V150c0-4-1-7.18-6-7.18-4.09,0-7,2.22-9.13,4.57v17.78c0,3.7.14,5.57,1.55,7.79v.13h-6.38V173c1.27-2.22,1.48-4.3,1.48-7.72V150c0-4-.94-7.18-6-7.18-4.09,0-6.91,2.08-9.06,4.43v17.92c0,3.49.14,5.57,1.48,7.79v.13Z" style="fill:#fff"/><path d="M204.44,169.34a15.13,15.13,0,0,1-10.61,4.76c-4.76,0-7.85-2.55-7.85-6.85,0-7.85,10.81-11.27,18.46-12v-6.18c0-3.55-1.68-6.84-7.59-6.84a16.94,16.94,0,0,0-9.39,2.95l-.34-.47a16.38,16.38,0,0,1,11.68-4.5c7.45,0,9,3.9,9,8.19v20.27c0,1.82.81,2.89,2.62,2.89a4.37,4.37,0,0,0,3.22-1.61l.2.13a5.35,5.35,0,0,1-5.1,3.83C205.85,173.9,204.5,172,204.44,169.34Zm0-1.15V156.31c-7.25.88-15,3.83-15,10,0,3.15,1.81,5.37,6,5.37A13.27,13.27,0,0,0,204.44,168.19Z" style="fill:#fff"/></g><g id="Calque_3" data-name="Calque 3"><polygon points="128.95 95.59 83.21 112.23 83.21 78.95 128.95 95.59" style="fill:#fff"/><path d="M83.21,112.74a.52.52,0,0,1-.5-.5V79a.52.52,0,0,1,.21-.41.53.53,0,0,1,.46-.06l45.74,16.64a.52.52,0,0,1,.33.47.51.51,0,0,1-.33.47L83.38,112.71Zm.5-33.07v31.85l43.77-15.93Z" style="fill:#fff"/><path d="M129,96.09a.47.47,0,0,1-.17,0L83,79.42a.5.5,0,0,1-.33-.47V17.14a.5.5,0,0,1,.33-.47L128.78,0a.48.48,0,0,1,.45.06.49.49,0,0,1,.22.41V95.59a.48.48,0,0,1-.22.41A.47.47,0,0,1,129,96.09ZM83.71,78.6l44.74,16.28V1.21L83.71,17.49Z" style="fill:#fff"/><polygon points="106.08 15.84 100.13 34.12 94.14 31.95 106.08 15.84" style="fill:#fff"/><path d="M100.13,34.62a.47.47,0,0,1-.17,0l-6-2.17a.53.53,0,0,1-.31-.33.47.47,0,0,1,.08-.44l11.93-16.11a.51.51,0,0,1,.64-.15.51.51,0,0,1,.24.6l-6,18.28a.5.5,0,0,1-.25.3A.59.59,0,0,1,100.13,34.62Zm-5.19-2.91,4.87,1.76,4.84-14.87Z" style="fill:#fff"/><path d="M112.07,34.62a.54.54,0,0,1-.22,0,.51.51,0,0,1-.26-.3L105.6,16a.5.5,0,0,1,.88-.45l11.94,16.11a.49.49,0,0,1,.07.44.52.52,0,0,1-.3.33l-6,2.17Zm-4.56-16,4.87,14.85,4.83-1.76Z" style="fill:#fff"/><path d="M112.07,67.32a.5.5,0,0,1-.29-.09.52.52,0,0,1-.21-.41V34.12a.5.5,0,0,1,.32-.47l6-2.17a.47.47,0,0,1,.46.06.49.49,0,0,1,.21.41v32.7a.51.51,0,0,1-.32.47l-6,2.17Zm.5-32.85V66.1l4.94-1.8V32.66Z" style="fill:#fff"/><polygon points="100.13 34.12 100.13 66.82 94.14 64.65 94.14 31.95 100.13 34.12" style="fill:#fff"/><path d="M100.13,67.32a.47.47,0,0,1-.17,0l-6-2.17a.51.51,0,0,1-.33-.47V32a.49.49,0,0,1,.21-.41.48.48,0,0,1,.46-.06l6,2.17a.5.5,0,0,1,.33.47v32.7a.49.49,0,0,1-.5.5Zm-5.49-3,5,1.8V34.47l-5-1.81Z" style="fill:#fff"/><path d="M112.07,34.62H100.13a.52.52,0,0,1-.41-.21.52.52,0,0,1-.07-.45l5.95-18.28a.51.51,0,0,1,.48-.34h0a.51.51,0,0,1,.47.34l6,18.28a.5.5,0,0,1-.47.66Zm-11.25-1h10.56l-5.3-16.17Z" style="fill:#fff"/><path d="M112.07,67.32H100.13a.5.5,0,0,1-.5-.5V34.12a.5.5,0,0,1,.5-.5h11.94a.5.5,0,0,1,.5.5v32.7A.51.51,0,0,1,112.07,67.32Zm-11.44-1h10.94V34.62H100.63Z" style="fill:#fff"/><path d="M106.08,79.67h0a.48.48,0,0,1-.45-.29L99.68,67a.46.46,0,0,1,0-.48.48.48,0,0,1,.42-.23h11.94a.5.5,0,0,1,.42.23.51.51,0,0,1,0,.48l-6,12.36A.51.51,0,0,1,106.08,79.67Zm-5.16-12.35L106.08,78l5.19-10.7Z" style="fill:#fff"/><path d="M106.08,79.67a.5.5,0,0,1-.27-.08.49.49,0,0,1-.18-.64l6-12.35a.44.44,0,0,1,.27-.25l6-2.17a.49.49,0,0,1,.58.18.5.5,0,0,1,0,.6L106.46,79.49A.53.53,0,0,1,106.08,79.67Zm6.35-12.45-4.07,8.38,8.1-9.86Z" style="fill:#fff"/><polygon points="106.08 79.17 94.14 64.65 100.13 66.82 106.08 79.17" style="fill:#fff"/><path d="M106.08,79.67a.53.53,0,0,1-.39-.18L93.75,65a.5.5,0,0,1,0-.6.49.49,0,0,1,.58-.18l6,2.17a.49.49,0,0,1,.28.25l6,12.35a.51.51,0,0,1-.18.64A.56.56,0,0,1,106.08,79.67ZM95.68,65.74l8.14,9.9-4-8.42Z" style="fill:#fff"/></g></g></svg>