{
    "asset" : {
        "generator" : "Khronos glTF Blender I/O v1.3.48",
        "version" : "2.0"
    },
    "scene" : 0,
    "scenes" : [
        {
            "name" : "Scene",
            "nodes" : [
                0
            ]
        }
    ],
    "nodes" : [
        {
            "mesh" : 0,
            "name" : "Sphere_cell.030",
            "rotation" : [
                -0.3399869203567505,
                -0.6840627193450928,
                0.5608687996864319,
                -0.3192072808742523
            ],
            "scale" : [
                -0.18072067201137543,
                -0.180720716714859,
                -0.18072067201137543
            ],
            "translation" : [
                0.0034942179918289185,
                0.3793928027153015,
                -0.009011957794427872
            ]
        }
    ],
    "meshes" : [
        {
            "name" : "Sphere_cell.035",
            "primitives" : [
                {
                    "attributes" : {
                        "POSITION" : 0,
                        "NORMAL" : 1,
                        "TEXCOORD_0" : 2
                    },
                    "indices" : 3
                }
            ]
        }
    ],
    "accessors" : [
        {
            "bufferView" : 0,
            "componentType" : 5126,
            "count" : 5086,
            "max" : [
                1.0315487384796143,
                1.1110715866088867,
                1.6299951076507568
            ],
            "min" : [
                -1.2100574970245361,
                -1.2336673736572266,
                -2.193713903427124
            ],
            "type" : "VEC3"
        },
        {
            "bufferView" : 1,
            "componentType" : 5126,
            "count" : 5086,
            "type" : "VEC3"
        },
        {
            "bufferView" : 2,
            "componentType" : 5126,
            "count" : 5086,
            "type" : "VEC2"
        },
        {
            "bufferView" : 3,
            "componentType" : 5123,
            "count" : 6564,
            "type" : "SCALAR"
        }
    ],
    "bufferViews" : [
        {
            "buffer" : 0,
            "byteLength" : 61032,
            "byteOffset" : 0
        },
        {
            "buffer" : 0,
            "byteLength" : 61032,
            "byteOffset" : 61032
        },
        {
            "buffer" : 0,
            "byteLength" : 40688,
            "byteOffset" : 122064
        },
        {
            "buffer" : 0,
            "byteLength" : 13128,
            "byteOffset" : 162752
        }
    ],
    "buffers" : [
        {
            "byteLength" : 175880,
            "uri" : "data:application/octet-stream;base64,"
        }
    ]
}
