{
    "asset" : {
        "generator" : "Khronos glTF Blender I/O v1.3.48",
        "version" : "2.0"
    },
    "scene" : 0,
    "scenes" : [
        {
            "name" : "Scene",
            "nodes" : [
                0,
                1,
                2,
                3,
                4
            ]
        }
    ],
    "nodes" : [
        {
            "mesh" : 0,
            "name" : "Sphere_cell.001",
            "rotation" : [
                0.3465123176574707,
                -0.7457869052886963,
                0.07137659937143326,
                0.5644789338111877
            ],
            "scale" : [
                1.109849214553833,
                1.109849452972412,
                1.109849452972412
            ],
            "translation" : [
                0.082794189453125,
                0.06701815128326416,
                -0.09561967849731445
            ]
        },
        {
            "mesh" : 1,
            "name" : "Sphere_cell.064",
            "rotation" : [
                -0.9418638944625854,
                -0.10575560480356216,
                0.00016736054385546595,
                0.31891709566116333
            ],
            "scale" : [
                1.609114408493042,
                1.6091147661209106,
                1.609114646911621
            ],
            "translation" : [
                0.11706247925758362,
                0.5242049694061279,
                -0.08627986907958984
            ]
        },
        {
            "mesh" : 2,
            "name" : "Sphere_cell.066",
            "rotation" : [
                0.24444906413555145,
                0.41597169637680054,
                0.3299645781517029,
                0.8113789558410645
            ],
            "scale" : [
                0.503169059753418,
                0.503169059753418,
                0.5031688809394836
            ],
            "translation" : [
                0.11277858167886734,
                0.2720029056072235,
                -0.07285261154174805
            ]
        },
        {
            "mesh" : 3,
            "name" : "Sphere_cell.067",
            "rotation" : [
                0.3465123772621155,
                -0.7457869052886963,
                0.07137653976678848,
                0.5644789338111877
            ],
            "scale" : [
                0.22719134390354156,
                0.22719146311283112,
                0.22719144821166992
            ],
            "translation" : [
                0.082794189453125,
                0.38008764386177063,
                -0.09561967849731445
            ]
        },
        {
            "mesh" : 4,
            "name" : "COLONNE quotidienne.003",
            "scale" : [
                -0.15001870691776276,
                -0.15001870691776276,
                -0.15001870691776276
            ],
            "translation" : [
                0.08956052362918854,
                -0.3080398440361023,
                -0.06714963912963867
            ]
        }
    ],
    "meshes" : [
        {
            "name" : "Sphere_cell.068",
            "primitives" : [
                {
                    "attributes" : {
                        "POSITION" : 0,
                        "NORMAL" : 1,
                        "TEXCOORD_0" : 2
                    },
                    "indices" : 3
                }
            ]
        },
        {
            "name" : "Sphere_cell.049",
            "primitives" : [
                {
                    "attributes" : {
                        "POSITION" : 4,
                        "NORMAL" : 5,
                        "TEXCOORD_0" : 6
                    },
                    "indices" : 7
                }
            ]
        },
        {
            "name" : "Sphere_cell.069",
            "primitives" : [
                {
                    "attributes" : {
                        "POSITION" : 8,
                        "NORMAL" : 9,
                        "TEXCOORD_0" : 10
                    },
                    "indices" : 11
                }
            ]
        },
        {
            "name" : "Sphere_cell.070",
            "primitives" : [
                {
                    "attributes" : {
                        "POSITION" : 12,
                        "NORMAL" : 13,
                        "TEXCOORD_0" : 14
                    },
                    "indices" : 3
                }
            ]
        },
        {
            "name" : "Cylinder.005",
            "primitives" : [
                {
                    "attributes" : {
                        "POSITION" : 15,
                        "NORMAL" : 16,
                        "TEXCOORD_0" : 17
                    },
                    "indices" : 18
                }
            ]
        }
    ],
    "accessors" : [
        {
            "bufferView" : 0,
            "componentType" : 5126,
            "count" : 186,
            "max" : [
                0.21016669273376465,
                0.12187856435775757,
                0.11813417077064514
            ],
            "min" : [
                -0.1330280601978302,
                -0.16088105738162994,
                -0.15399862825870514
            ],
            "type" : "VEC3"
        },
        {
            "bufferView" : 1,
            "componentType" : 5126,
            "count" : 186,
            "type" : "VEC3"
        },
        {
            "bufferView" : 2,
            "componentType" : 5126,
            "count" : 186,
            "type" : "VEC2"
        },
        {
            "bufferView" : 3,
            "componentType" : 5123,
            "count" : 192,
            "type" : "SCALAR"
        },
        {
            "bufferView" : 4,
            "componentType" : 5126,
            "count" : 208,
            "max" : [
                0.08128497004508972,
                0.0779222697019577,
                0.12050878256559372
            ],
            "min" : [
                -0.11706726998090744,
                -0.12929514050483704,
                -0.11727049946784973
            ],
            "type" : "VEC3"
        },
        {
            "bufferView" : 5,
            "componentType" : 5126,
            "count" : 208,
            "type" : "VEC3"
        },
        {
            "bufferView" : 6,
            "componentType" : 5126,
            "count" : 208,
            "type" : "VEC2"
        },
        {
            "bufferView" : 7,
            "componentType" : 5123,
            "count" : 300,
            "type" : "SCALAR"
        },
        {
            "bufferView" : 8,
            "componentType" : 5126,
            "count" : 200,
            "max" : [
                0.18546627461910248,
                0.1583697497844696,
                0.1901448369026184
            ],
            "min" : [
                -0.20312906801700592,
                -0.14637711644172668,
                -0.1493033766746521
            ],
            "type" : "VEC3"
        },
        {
            "bufferView" : 9,
            "componentType" : 5126,
            "count" : 200,
            "type" : "VEC3"
        },
        {
            "bufferView" : 10,
            "componentType" : 5126,
            "count" : 200,
            "type" : "VEC2"
        },
        {
            "bufferView" : 11,
            "componentType" : 5123,
            "count" : 216,
            "type" : "SCALAR"
        },
        {
            "bufferView" : 12,
            "componentType" : 5126,
            "count" : 186,
            "max" : [
                0.21016669273376465,
                0.12187856435775757,
                0.11813417077064514
            ],
            "min" : [
                -0.1330280601978302,
                -0.16088105738162994,
                -0.15399862825870514
            ],
            "type" : "VEC3"
        },
        {
            "bufferView" : 13,
            "componentType" : 5126,
            "count" : 186,
            "type" : "VEC3"
        },
        {
            "bufferView" : 14,
            "componentType" : 5126,
            "count" : 186,
            "type" : "VEC2"
        },
        {
            "bufferView" : 15,
            "componentType" : 5126,
            "count" : 72,
            "max" : [
                1.2913254499435425,
                -5.7702789306640625,
                1.2913254499435425
            ],
            "min" : [
                -1.291325330734253,
                -6.419407367706299,
                -1.2913254499435425
            ],
            "type" : "VEC3"
        },
        {
            "bufferView" : 16,
            "componentType" : 5126,
            "count" : 72,
            "type" : "VEC3"
        },
        {
            "bufferView" : 17,
            "componentType" : 5126,
            "count" : 72,
            "type" : "VEC2"
        },
        {
            "bufferView" : 18,
            "componentType" : 5123,
            "count" : 114,
            "type" : "SCALAR"
        }
    ],
    "bufferViews" : [
        {
            "buffer" : 0,
            "byteLength" : 2232,
            "byteOffset" : 0
        },
        {
            "buffer" : 0,
            "byteLength" : 2232,
            "byteOffset" : 2232
        },
        {
            "buffer" : 0,
            "byteLength" : 1488,
            "byteOffset" : 4464
        },
        {
            "buffer" : 0,
            "byteLength" : 384,
            "byteOffset" : 5952
        },
        {
            "buffer" : 0,
            "byteLength" : 2496,
            "byteOffset" : 6336
        },
        {
            "buffer" : 0,
            "byteLength" : 2496,
            "byteOffset" : 8832
        },
        {
            "buffer" : 0,
            "byteLength" : 1664,
            "byteOffset" : 11328
        },
        {
            "buffer" : 0,
            "byteLength" : 600,
            "byteOffset" : 12992
        },
        {
            "buffer" : 0,
            "byteLength" : 2400,
            "byteOffset" : 13592
        },
        {
            "buffer" : 0,
            "byteLength" : 2400,
            "byteOffset" : 15992
        },
        {
            "buffer" : 0,
            "byteLength" : 1600,
            "byteOffset" : 18392
        },
        {
            "buffer" : 0,
            "byteLength" : 432,
            "byteOffset" : 19992
        },
        {
            "buffer" : 0,
            "byteLength" : 2232,
            "byteOffset" : 20424
        },
        {
            "buffer" : 0,
            "byteLength" : 2232,
            "byteOffset" : 22656
        },
        {
            "buffer" : 0,
            "byteLength" : 1488,
            "byteOffset" : 24888
        },
        {
            "buffer" : 0,
            "byteLength" : 864,
            "byteOffset" : 26376
        },
        {
            "buffer" : 0,
            "byteLength" : 864,
            "byteOffset" : 27240
        },
        {
            "buffer" : 0,
            "byteLength" : 576,
            "byteOffset" : 28104
        },
        {
            "buffer" : 0,
            "byteLength" : 228,
            "byteOffset" : 28680
        }
    ],
    "buffers" : [
        {
            "byteLength" : 28908,
            "uri" : "data:application/octet-stream;base64,"
        }
    ]
}
