{
    "asset" : {
        "generator" : "Khronos glTF Blender I/O v1.3.48",
        "version" : "2.0"
    },
    "scene" : 0,
    "scenes" : [
        {
            "name" : "Scene",
            "nodes" : [
                0
            ]
        }
    ],
    "nodes" : [
        {
            "mesh" : 0,
            "name" : "BezierCurve.008",
            "scale" : [
                0.22595715522766113,
                0.22595715522766113,
                0.22595715522766113
            ],
            "translation" : [
                -0.019748728722333908,
                0.3376311659812927,
                0.020493999123573303
            ]
        }
    ],
    "meshes" : [
        {
            "name" : "BezierCurve.009",
            "primitives" : [
                {
                    "attributes" : {
                        "POSITION" : 0,
                        "NORMAL" : 1,
                        "TEXCOORD_0" : 2
                    },
                    "indices" : 3
                }
            ]
        }
    ],
    "accessors" : [
        {
            "bufferView" : 0,
            "componentType" : 5126,
            "count" : 4175,
            "max" : [
                0.8553169965744019,
                1.319871425628662,
                0.8868750333786011
            ],
            "min" : [
                -0.8590579628944397,
                -1.4881088733673096,
                -0.8511831164360046
            ],
            "type" : "VEC3"
        },
        {
            "bufferView" : 1,
            "componentType" : 5126,
            "count" : 4175,
            "type" : "VEC3"
        },
        {
            "bufferView" : 2,
            "componentType" : 5126,
            "count" : 4175,
            "type" : "VEC2"
        },
        {
            "bufferView" : 3,
            "componentType" : 5123,
            "count" : 11514,
            "type" : "SCALAR"
        }
    ],
    "bufferViews" : [
        {
            "buffer" : 0,
            "byteLength" : 50100,
            "byteOffset" : 0
        },
        {
            "buffer" : 0,
            "byteLength" : 50100,
            "byteOffset" : 50100
        },
        {
            "buffer" : 0,
            "byteLength" : 33400,
            "byteOffset" : 100200
        },
        {
            "buffer" : 0,
            "byteLength" : 23028,
            "byteOffset" : 133600
        }
    ],
    "buffers" : [
        {
            "byteLength" : 156628,
            "uri" : "data:application/octet-stream;base64,"
        }
    ]
}
