{
    "asset" : {
        "generator" : "Khronos glTF Blender I/O v1.3.48",
        "version" : "2.0"
    },
    "scene" : 0,
    "scenes" : [
        {
            "name" : "Scene",
            "nodes" : [
                0
            ]
        }
    ],
    "nodes" : [
        {
            "mesh" : 0,
            "name" : "COLONNE MAUVAIS REVE.001",
            "scale" : [
                -0.15001870691776276,
                -0.15001870691776276,
                -0.15001870691776276
            ],
            "translation" : [
                -0.0011751651763916016,
                0.26250529289245605,
                -0.003710031509399414
            ]
        }
    ],
    "meshes" : [
        {
            "name" : "Cylinder.006",
            "primitives" : [
                {
                    "attributes" : {
                        "POSITION" : 0,
                        "NORMAL" : 1,
                        "TEXCOORD_0" : 2
                    },
                    "indices" : 3
                }
            ]
        }
    ],
    "accessors" : [
        {
            "bufferView" : 0,
            "componentType" : 5126,
            "count" : 368,
            "max" : [
                1.2913254499435425,
                1.7461680173873901,
                1.2913254499435425
            ],
            "min" : [
                -1.291325330734253,
                -2.546046018600464,
                -1.2913254499435425
            ],
            "type" : "VEC3"
        },
        {
            "bufferView" : 1,
            "componentType" : 5126,
            "count" : 368,
            "type" : "VEC3"
        },
        {
            "bufferView" : 2,
            "componentType" : 5126,
            "count" : 368,
            "type" : "VEC2"
        },
        {
            "bufferView" : 3,
            "componentType" : 5123,
            "count" : 372,
            "type" : "SCALAR"
        }
    ],
    "bufferViews" : [
        {
            "buffer" : 0,
            "byteLength" : 4416,
            "byteOffset" : 0
        },
        {
            "buffer" : 0,
            "byteLength" : 4416,
            "byteOffset" : 4416
        },
        {
            "buffer" : 0,
            "byteLength" : 2944,
            "byteOffset" : 8832
        },
        {
            "buffer" : 0,
            "byteLength" : 744,
            "byteOffset" : 11776
        }
    ],
    "buffers" : [
        {
            "byteLength" : 12520,
            "uri" : "data:application/octet-stream;base64,"
        }
    ]
}
