{
    "asset" : {
        "generator" : "Khronos glTF Blender I/O v1.3.48",
        "version" : "2.0"
    },
    "scene" : 0,
    "scenes" : [
        {
            "name" : "Scene",
            "nodes" : [
                0
            ]
        }
    ],
    "nodes" : [
        {
            "mesh" : 0,
            "name" : "Sphere_cell.056",
            "rotation" : [
                -0.3887876868247986,
                0.5347525477409363,
                0.42866483330726624,
                0.6157355904579163
            ],
            "scale" : [
                0.05862484872341156,
                0.058624811470508575,
                0.05862482264637947
            ],
            "translation" : [
                0.004160303622484207,
                0.3757566213607788,
                -0.009761378169059753
            ]
        }
    ],
    "meshes" : [
        {
            "name" : "Sphere_cell.060",
            "primitives" : [
                {
                    "attributes" : {
                        "POSITION" : 0,
                        "NORMAL" : 1,
                        "TEXCOORD_0" : 2
                    },
                    "indices" : 3
                }
            ]
        }
    ],
    "accessors" : [
        {
            "bufferView" : 0,
            "componentType" : 5126,
            "count" : 4474,
            "max" : [
                3.7646937370300293,
                4.685964107513428,
                5.373429298400879
            ],
            "min" : [
                -3.285045623779297,
                -4.4830002784729,
                -6.853497505187988
            ],
            "type" : "VEC3"
        },
        {
            "bufferView" : 1,
            "componentType" : 5126,
            "count" : 4474,
            "type" : "VEC3"
        },
        {
            "bufferView" : 2,
            "componentType" : 5126,
            "count" : 4474,
            "type" : "VEC2"
        },
        {
            "bufferView" : 3,
            "componentType" : 5123,
            "count" : 5754,
            "type" : "SCALAR"
        }
    ],
    "bufferViews" : [
        {
            "buffer" : 0,
            "byteLength" : 53688,
            "byteOffset" : 0
        },
        {
            "buffer" : 0,
            "byteLength" : 53688,
            "byteOffset" : 53688
        },
        {
            "buffer" : 0,
            "byteLength" : 35792,
            "byteOffset" : 107376
        },
        {
            "buffer" : 0,
            "byteLength" : 11508,
            "byteOffset" : 143168
        }
    ],
    "buffers" : [
        {
            "byteLength" : 154676,
            "uri" : "data:application/octet-stream;base64,"
        }
    ]
}
