<svg xmlns="http://www.w3.org/2000/svg" viewBox="0 0 75.29 75.29"><g id="Calque_2" data-name="Calque 2"><g id="Calque_3" data-name="Calque 3"><rect width="75.29" height="75.29" style="fill:none"/><path d="M53.28.37a.37.37,0,0,0-.16-.3.39.39,0,0,0-.35,0L22.26,11.12a.39.39,0,0,0-.25.36V74.91a.37.37,0,0,0,.16.31.36.36,0,0,0,.22.07l.12,0L53,64.16s0,0,0,0h0a.18.18,0,0,0,.05-.07l0,0a.47.47,0,0,0,.06-.2ZM22.76,11.74,52.53.91V63.28L26,53.62l-3.23-1.17Z"/><path d="M29.33,43.24a.25.25,0,0,0,.06.15h0l8,9.69.07,0,0,0h0a.41.41,0,0,0,.18,0h0a.35.35,0,0,0,.18,0h0a0,0,0,0,1,0,0v0s.05,0,.06,0l8-9.69h0a.25.25,0,0,0,.06-.15s0,0,0-.07h0V21.32l0-.09a.11.11,0,0,0,0-.07,0,0,0,0,0,0,0L38,10.38s0,0-.05,0l-.07-.06v0h0l-.08,0,0,0,0,0-.08,0h-.05l0,0-.06.06,0,0-8,10.75a0,0,0,0,0,0,0,.25.25,0,0,0,0,.07.29.29,0,0,0,0,.09V43.17h0A.14.14,0,0,0,29.33,43.24ZM34.27,45H41l-3.39,7Zm7-.75H34.05V23.18h7.22Zm4-1.34L42,44.08v-21l3.21-1.17ZM41.12,22.43H34.19l2.14-6.57,1.31-4,1.49,4.53Zm.79,22.49L44.45,44l-5.09,6.19ZM45,21.17l-2.4.88-.73.26-2.44-7.43-.72-2.19Z"/></g></g></svg>