<svg xmlns="http://www.w3.org/2000/svg" viewBox="0 0 23 15"><g id="Calque_2" data-name="Calque 2"><g id="Calque_1-2" data-name="Calque 1"><g id="Groupe_80" data-name="Groupe 80"><path id="Icon-2" d="M11.5,15A12.47,12.47,0,0,1,3,11.47,14.91,14.91,0,0,1,.13,7.91.74.74,0,0,1,0,7.5.75.75,0,0,1,.17,7,18.94,18.94,0,0,1,3.3,3.47,12.69,12.69,0,0,1,11.5,0a12.69,12.69,0,0,1,8.2,3.47A18.94,18.94,0,0,1,22.83,7a.75.75,0,0,1,.05.88h0A14.69,14.69,0,0,1,20,11.49,12.42,12.42,0,0,1,11.5,15Zm0-12.75A5.32,5.32,0,0,0,6.13,7.5a5.37,5.37,0,0,0,10.74,0A5.32,5.32,0,0,0,11.5,2.25Zm0,7.5A2.25,2.25,0,1,1,13.8,7.5a2.25,2.25,0,0,1-2.3,2.25Z"/></g></g></g></svg>