<svg xmlns="http://www.w3.org/2000/svg" viewBox="0 0 82.75 104.83"><g id="Calque_2" data-name="Calque 2"><g id="Calque_3" data-name="Calque 3"><path d="M58.59,86.1,23.31,78a1.88,1.88,0,0,1-1.46-1.84V1.89A1.89,1.89,0,0,1,24.16.05L59.44,8.18A1.87,1.87,0,0,1,60.9,10V84.26A1.89,1.89,0,0,1,58.59,86.1Z" style="fill:#fff"/><path d="M34.39,97.83c-18.69-1.52-32.89-9-32.89-18,0-10.11,17.86-18.3,39.88-18.3s39.87,8.19,39.87,18.3c0,9-14.19,16.5-32.88,18" style="fill:none;stroke:#fff;stroke-linecap:round;stroke-linejoin:round;stroke-width:3px"/><polyline points="26.48 103.33 34.57 97.81 27.89 90.52" style="fill:none;stroke:#fff;stroke-linecap:round;stroke-linejoin:round;stroke-width:3px"/></g></g></svg>