<svg xmlns="http://www.w3.org/2000/svg" viewBox="0 0 23.13 32.87"><g id="Calque_2" data-name="Calque 2"><g id="Calque_3" data-name="Calque 3"><path d="M5.87,12.54l1.51,7.13H5.45l-2.16-2.6a9,9,0,0,1-1.38-1.88C-.88,10.12,1.53,3.74,7.46,1.5A11.27,11.27,0,0,1,10.35.81,11.55,11.55,0,0,0,5.87,12.54Z" style="fill:none;stroke:#fff;stroke-linejoin:round;stroke-width:1.5px"/><path d="M17.26,12.54l-1.5,7.13H7.38L5.87,12.54A11.55,11.55,0,0,1,10.35.81a12.33,12.33,0,0,1,2.43,0A11.55,11.55,0,0,1,17.26,12.54Z" style="fill:none;stroke:#fff;stroke-linejoin:round;stroke-width:1.5px"/><path d="M22.38,10.74a9.23,9.23,0,0,1-1.15,4.45,9.83,9.83,0,0,1-1.39,1.88l-2.17,2.6H15.76l1.5-7.13A11.55,11.55,0,0,0,12.78.81a11.1,11.1,0,0,1,2.88.69A10,10,0,0,1,22.38,10.74Z" style="fill:none;stroke:#fff;stroke-linejoin:round;stroke-width:1.5px"/><polygon points="17.67 19.66 13.52 24.65 9.6 24.65 5.45 19.66 17.67 19.66" style="fill:none;stroke:#fff;stroke-linejoin:round;stroke-width:1.5px"/><rect x="9.6" y="24.65" width="3.92" height="3.12" style="fill:none;stroke:#fff;stroke-linejoin:round;stroke-width:1.5px"/><path d="M8.52,27.78h6.08a0,0,0,0,1,0,0v3a1.39,1.39,0,0,1-1.39,1.39H9.91a1.39,1.39,0,0,1-1.39-1.39v-3A0,0,0,0,1,8.52,27.78Z" style="fill:none;stroke:#fff;stroke-linejoin:round;stroke-width:1.5px"/><path d="M10.42.76a.18.18,0,0,0-.07.05" style="fill:none;stroke:#fff;stroke-linejoin:round;stroke-width:1.5px"/><path d="M12.78.81s0,0-.07-.05" style="fill:none;stroke:#fff;stroke-linejoin:round;stroke-width:1.5px"/></g></g></svg>