<svg xmlns="http://www.w3.org/2000/svg" viewBox="0 0 15.46 22.49"><g id="Calque_2" data-name="Calque 2"><g id="Calque_1-2" data-name="Calque 1"><path id="Icon_awesome-microphone" data-name="Icon awesome-microphone" d="M7.73,15.46A4.21,4.21,0,0,0,12,11.25h0v-7a4.22,4.22,0,1,0-8.43,0v7a4.2,4.2,0,0,0,4.21,4.21Zm7-7h-.7a.7.7,0,0,0-.71.7v2.11a5.61,5.61,0,0,1-5.63,5.62l-.55,0A5.81,5.81,0,0,1,2.11,11V9.14a.71.71,0,0,0-.71-.71H.7a.71.71,0,0,0-.7.71H0V10.9a8,8,0,0,0,6.68,8v1.5H4.21a.71.71,0,0,0-.7.71h0v.7a.7.7,0,0,0,.7.7h7a.7.7,0,0,0,.71-.7h0v-.7a.71.71,0,0,0-.71-.71H8.78V18.9a7.74,7.74,0,0,0,6.68-7.65V9.14a.71.71,0,0,0-.7-.71Z"/></g></g></svg>