<svg xmlns="http://www.w3.org/2000/svg" xmlns:xlink="http://www.w3.org/1999/xlink" width="28.055" height="35.178" viewBox="0 0 28.055 35.178">
  <defs>
    <filter id="Arrow" x="0" y="0" width="28.055" height="35.178" filterUnits="userSpaceOnUse">
      <feOffset dy="3" input="SourceAlpha"/>
      <feGaussianBlur stdDeviation="3" result="blur"/>
      <feFlood flood-opacity="0.161"/>
      <feComposite operator="in" in2="blur"/>
      <feComposite in="SourceGraphic"/>
    </filter>
  </defs>
  <g transform="matrix(1, 0, 0, 1, 0, 0)" filter="url(#Arrow)">
    <path id="Arrow-2" data-name="Arrow" d="M7.992,16.828.245,9.172a.817.817,0,0,1,0-1.166L7.992.35A1.22,1.22,0,0,1,9.7.35a1.186,1.186,0,0,1,0,1.689L3.075,8.589,9.7,15.138a1.187,1.187,0,0,1,0,1.69,1.22,1.22,0,0,1-1.71,0" transform="translate(19.05 23.18) rotate(180)" fill="#eae7e1"/>
  </g>
</svg>
