<svg xmlns="http://www.w3.org/2000/svg" viewBox="0 0 20.54 18.96"><g id="Calque_2" data-name="Calque 2"><g id="Calque_1-2" data-name="Calque 1"><g id="Icon_ionic-md-qr-scanner" data-name="Icon ionic-md-qr-scanner"><path id="Tracé_124" data-name="Tracé 124" d="M2.37,3A.59.59,0,0,1,3,2.37H6.32V0H3A3,3,0,0,0,0,3V6.32H2.37Z"/><path id="Tracé_125" data-name="Tracé 125" d="M17.55,0H14.22V2.37h3.32a.61.61,0,0,1,.63.6h0V6.32h2.37V3a3,3,0,0,0-3-3Z"/><path id="Tracé_126" data-name="Tracé 126" d="M18.17,15.94a.6.6,0,0,1-.58.6H14.22V19h3.35a3,3,0,0,0,3-3v-3.3H18.17Z"/><path id="Tracé_127" data-name="Tracé 127" d="M3,16.54a.6.6,0,0,1-.6-.58V12.64H0v3.3a3,3,0,0,0,3,3H6.32V16.54Z"/></g></g></g></svg>