{
    "asset" : {
        "generator" : "Khronos glTF Blender I/O v1.3.48",
        "version" : "2.0"
    },
    "scene" : 0,
    "scenes" : [
        {
            "name" : "Scene",
            "nodes" : [
                0
            ]
        }
    ],
    "nodes" : [
        {
            "mesh" : 0,
            "name" : "Plane.002",
            "rotation" : [
                0.7071068286895752,
                -0.7071068286895752,
                0,
                -3.090862321641907e-08
            ],
            "scale" : [
                0.06284677982330322,
                0.06284677982330322,
                0.06284677982330322
            ],
            "translation" : [
                0,
                0.0004093647003173828,
                -0.000909067690372467
            ]
        }
    ],
    "meshes" : [
        {
            "name" : "Plane.002",
            "primitives" : [
                {
                    "attributes" : {
                        "POSITION" : 0,
                        "NORMAL" : 1,
                        "TEXCOORD_0" : 2
                    },
                    "indices" : 3
                }
            ]
        }
    ],
    "accessors" : [
        {
            "bufferView" : 0,
            "componentType" : 5126,
            "count" : 3284,
            "max" : [
                -0.005929470993578434,
                4.238872051239014,
                4.521639347076416
            ],
            "min" : [
                -12.168197631835938,
                -4.452639102935791,
                -4.327776908874512
            ],
            "type" : "VEC3"
        },
        {
            "bufferView" : 1,
            "componentType" : 5126,
            "count" : 3284,
            "type" : "VEC3"
        },
        {
            "bufferView" : 2,
            "componentType" : 5126,
            "count" : 3284,
            "type" : "VEC2"
        },
        {
            "bufferView" : 3,
            "componentType" : 5123,
            "count" : 9354,
            "type" : "SCALAR"
        }
    ],
    "bufferViews" : [
        {
            "buffer" : 0,
            "byteLength" : 39408,
            "byteOffset" : 0
        },
        {
            "buffer" : 0,
            "byteLength" : 39408,
            "byteOffset" : 39408
        },
        {
            "buffer" : 0,
            "byteLength" : 26272,
            "byteOffset" : 78816
        },
        {
            "buffer" : 0,
            "byteLength" : 18708,
            "byteOffset" : 105088
        }
    ],
    "buffers" : [
        {
            "byteLength" : 123796,
            "uri" : "data:application/octet-stream;base64,"
        }
    ]
}
