{
    "asset" : {
        "generator" : "Khronos glTF Blender I/O v1.3.48",
        "version" : "2.0"
    },
    "scene" : 0,
    "scenes" : [
        {
            "name" : "Scene",
            "nodes" : [
                0
            ]
        }
    ],
    "nodes" : [
        {
            "mesh" : 0,
            "name" : "COLONNE quotidienne.003",
            "scale" : [
                -0.15001870691776276,
                -0.15001870691776276,
                -0.15001870691776276
            ],
            "translation" : [
                0.007025512866675854,
                0.00015905499458312988,
                -0.003078630194067955
            ]
        }
    ],
    "meshes" : [
        {
            "name" : "Cylinder.005",
            "primitives" : [
                {
                    "attributes" : {
                        "POSITION" : 0,
                        "NORMAL" : 1,
                        "TEXCOORD_0" : 2
                    },
                    "indices" : 3
                }
            ]
        }
    ],
    "accessors" : [
        {
            "bufferView" : 0,
            "componentType" : 5126,
            "count" : 852,
            "max" : [
                1.3536442518234253,
                -0.004741191864013672,
                1.3255808353424072
            ],
            "min" : [
                -1.2290065288543701,
                -4.375167369842529,
                -1.5907135009765625
            ],
            "type" : "VEC3"
        },
        {
            "bufferView" : 1,
            "componentType" : 5126,
            "count" : 852,
            "type" : "VEC3"
        },
        {
            "bufferView" : 2,
            "componentType" : 5126,
            "count" : 852,
            "type" : "VEC2"
        },
        {
            "bufferView" : 3,
            "componentType" : 5123,
            "count" : 1014,
            "type" : "SCALAR"
        }
    ],
    "bufferViews" : [
        {
            "buffer" : 0,
            "byteLength" : 10224,
            "byteOffset" : 0
        },
        {
            "buffer" : 0,
            "byteLength" : 10224,
            "byteOffset" : 10224
        },
        {
            "buffer" : 0,
            "byteLength" : 6816,
            "byteOffset" : 20448
        },
        {
            "buffer" : 0,
            "byteLength" : 2028,
            "byteOffset" : 27264
        }
    ],
    "buffers" : [
        {
            "byteLength" : 29292,
            "uri" : "data:application/octet-stream;base64,"
        }
    ]
}
