{
    "asset" : {
        "generator" : "Khronos glTF Blender I/O v1.3.48",
        "version" : "2.0"
    },
    "scene" : 0,
    "scenes" : [
        {
            "name" : "Scene",
            "nodes" : [
                0
            ]
        }
    ],
    "nodes" : [
        {
            "mesh" : 0,
            "name" : "BezierCurve.006",
            "rotation" : [
                -0.5496657490730286,
                0.7127094268798828,
                0.3130234181880951,
                0.3031984567642212
            ],
            "scale" : [
                0.25553810596466064,
                0.25553810596466064,
                0.25553810596466064
            ],
            "translation" : [
                -0.028722763061523438,
                0.4281378984451294,
                0.00535174086689949
            ]
        }
    ],
    "meshes" : [
        {
            "name" : "BezierCurve.008",
            "primitives" : [
                {
                    "attributes" : {
                        "POSITION" : 0,
                        "NORMAL" : 1,
                        "TEXCOORD_0" : 2
                    },
                    "indices" : 3
                }
            ]
        }
    ],
    "accessors" : [
        {
            "bufferView" : 0,
            "componentType" : 5126,
            "count" : 6697,
            "max" : [
                1.428571343421936,
                0.8342739343643188,
                2.083611488342285
            ],
            "min" : [
                -1.317324161529541,
                -1.0307620763778687,
                -1.6602697372436523
            ],
            "type" : "VEC3"
        },
        {
            "bufferView" : 1,
            "componentType" : 5126,
            "count" : 6697,
            "type" : "VEC3"
        },
        {
            "bufferView" : 2,
            "componentType" : 5126,
            "count" : 6697,
            "type" : "VEC2"
        },
        {
            "bufferView" : 3,
            "componentType" : 5123,
            "count" : 28098,
            "type" : "SCALAR"
        }
    ],
    "bufferViews" : [
        {
            "buffer" : 0,
            "byteLength" : 80364,
            "byteOffset" : 0
        },
        {
            "buffer" : 0,
            "byteLength" : 80364,
            "byteOffset" : 80364
        },
        {
            "buffer" : 0,
            "byteLength" : 53576,
            "byteOffset" : 160728
        },
        {
            "buffer" : 0,
            "byteLength" : 56196,
            "byteOffset" : 214304
        }
    ],
    "buffers" : [
        {
            "byteLength" : 270500,
            "uri" : "data:application/octet-stream;base64,"
        }
    ]
}
