{
    "asset" : {
        "generator" : "Khronos glTF Blender I/O v1.5.17",
        "version" : "2.0"
    },
    "scene" : 0,
    "scenes" : [
        {
            "name" : "Scene",
            "nodes" : [
                0,
                1,
                2,
                3,
                4,
                5,
                6,
                7,
                8,
                9
            ]
        }
    ],
    "nodes" : [
        {
            "mesh" : 0,
            "name" : "hexagon_01",
            "rotation" : [
                0,
                0.1707138866186142,
                0,
                0.9853207468986511
            ]
        },
        {
            "mesh" : 1,
            "name" : "hexagon_09",
            "rotation" : [
                0,
                0.1707138866186142,
                0,
                0.9853207468986511
            ]
        },
        {
            "mesh" : 2,
            "name" : "hexagon_06",
            "rotation" : [
                0,
                0.1707138866186142,
                0,
                0.9853207468986511
            ]
        },
        {
            "mesh" : 3,
            "name" : "hexagon_04",
            "rotation" : [
                0,
                0.1707138866186142,
                0,
                0.9853207468986511
            ]
        },
        {
            "mesh" : 4,
            "name" : "hexagon_03",
            "rotation" : [
                0,
                0.1707138866186142,
                0,
                0.9853207468986511
            ]
        },
        {
            "mesh" : 5,
            "name" : "hexagon_08",
            "rotation" : [
                0,
                0.1707138866186142,
                0,
                0.9853207468986511
            ]
        },
        {
            "mesh" : 6,
            "name" : "hexagon_07",
            "rotation" : [
                0,
                0.1707138866186142,
                0,
                0.9853207468986511
            ]
        },
        {
            "mesh" : 7,
            "name" : "hexagon_02",
            "rotation" : [
                0,
                0.1707138866186142,
                0,
                0.9853207468986511
            ]
        },
        {
            "mesh" : 8,
            "name" : "hexagon_05",
            "rotation" : [
                0,
                0.1707138866186142,
                0,
                0.9853207468986511
            ]
        },
        {
            "mesh" : 9,
            "name" : "hexagon_10",
            "rotation" : [
                0,
                0.1707138866186142,
                0,
                0.9853207468986511
            ]
        }
    ],
    "materials" : [
        {
            "doubleSided" : true,
            "name" : "Material",
            "pbrMetallicRoughness" : {
                "baseColorFactor" : [
                    0.800000011920929,
                    0.800000011920929,
                    0.800000011920929,
                    1
                ],
                "metallicFactor" : 0,
                "roughnessFactor" : 0.4000000059604645
            }
        }
    ],
    "meshes" : [
        {
            "name" : "Cylinder.085",
            "primitives" : [
                {
                    "attributes" : {
                        "POSITION" : 0,
                        "NORMAL" : 1,
                        "TEXCOORD_0" : 2,
                        "TEXCOORD_1" : 3
                    },
                    "indices" : 4,
                    "material" : 0
                }
            ]
        },
        {
            "name" : "Cylinder.003",
            "primitives" : [
                {
                    "attributes" : {
                        "POSITION" : 5,
                        "NORMAL" : 6,
                        "TEXCOORD_0" : 7,
                        "TEXCOORD_1" : 8
                    },
                    "indices" : 9,
                    "material" : 0
                }
            ]
        },
        {
            "name" : "Cylinder.005",
            "primitives" : [
                {
                    "attributes" : {
                        "POSITION" : 10,
                        "NORMAL" : 11,
                        "TEXCOORD_0" : 12,
                        "TEXCOORD_1" : 13
                    },
                    "indices" : 14,
                    "material" : 0
                }
            ]
        },
        {
            "name" : "Cylinder.009",
            "primitives" : [
                {
                    "attributes" : {
                        "POSITION" : 15,
                        "NORMAL" : 16,
                        "TEXCOORD_0" : 17,
                        "TEXCOORD_1" : 18
                    },
                    "indices" : 19,
                    "material" : 0
                }
            ]
        },
        {
            "name" : "Cylinder.012",
            "primitives" : [
                {
                    "attributes" : {
                        "POSITION" : 20,
                        "NORMAL" : 21,
                        "TEXCOORD_0" : 22,
                        "TEXCOORD_1" : 23
                    },
                    "indices" : 24,
                    "material" : 0
                }
            ]
        },
        {
            "name" : "Cylinder.019",
            "primitives" : [
                {
                    "attributes" : {
                        "POSITION" : 25,
                        "NORMAL" : 26,
                        "TEXCOORD_0" : 27,
                        "TEXCOORD_1" : 28
                    },
                    "indices" : 29,
                    "material" : 0
                }
            ]
        },
        {
            "name" : "Cylinder.023",
            "primitives" : [
                {
                    "attributes" : {
                        "POSITION" : 30,
                        "NORMAL" : 31,
                        "TEXCOORD_0" : 32,
                        "TEXCOORD_1" : 33
                    },
                    "indices" : 34,
                    "material" : 0
                }
            ]
        },
        {
            "name" : "Cylinder.029",
            "primitives" : [
                {
                    "attributes" : {
                        "POSITION" : 35,
                        "NORMAL" : 36,
                        "TEXCOORD_0" : 37,
                        "TEXCOORD_1" : 38
                    },
                    "indices" : 39,
                    "material" : 0
                }
            ]
        },
        {
            "name" : "Cylinder.032",
            "primitives" : [
                {
                    "attributes" : {
                        "POSITION" : 40,
                        "NORMAL" : 41,
                        "TEXCOORD_0" : 42,
                        "TEXCOORD_1" : 43
                    },
                    "indices" : 44,
                    "material" : 0
                }
            ]
        },
        {
            "name" : "Cylinder.035",
            "primitives" : [
                {
                    "attributes" : {
                        "POSITION" : 45,
                        "NORMAL" : 46,
                        "TEXCOORD_0" : 47,
                        "TEXCOORD_1" : 48
                    },
                    "indices" : 49,
                    "material" : 0
                }
            ]
        }
    ],
    "accessors" : [
        {
            "bufferView" : 0,
            "componentType" : 5126,
            "count" : 302,
            "max" : [
                -0.14951092004776,
                -0.4266408085823059,
                2.2642619609832764
            ],
            "min" : [
                -0.40106987953186035,
                -0.6281436085700989,
                2.104261875152588
            ],
            "type" : "VEC3"
        },
        {
            "bufferView" : 1,
            "componentType" : 5126,
            "count" : 302,
            "type" : "VEC3"
        },
        {
            "bufferView" : 2,
            "componentType" : 5126,
            "count" : 302,
            "type" : "VEC2"
        },
        {
            "bufferView" : 3,
            "componentType" : 5126,
            "count" : 302,
            "type" : "VEC2"
        },
        {
            "bufferView" : 4,
            "componentType" : 5123,
            "count" : 504,
            "type" : "SCALAR"
        },
        {
            "bufferView" : 5,
            "componentType" : 5126,
            "count" : 311,
            "max" : [
                -2.2541675567626953,
                -0.21009406447410583,
                1.0722124576568604
            ],
            "min" : [
                -2.4754557609558105,
                -0.6281432509422302,
                0.7974649667739868
            ],
            "type" : "VEC3"
        },
        {
            "bufferView" : 6,
            "componentType" : 5126,
            "count" : 311,
            "type" : "VEC3"
        },
        {
            "bufferView" : 7,
            "componentType" : 5126,
            "count" : 311,
            "type" : "VEC2"
        },
        {
            "bufferView" : 8,
            "componentType" : 5126,
            "count" : 311,
            "type" : "VEC2"
        },
        {
            "bufferView" : 9,
            "componentType" : 5123,
            "count" : 525,
            "type" : "SCALAR"
        },
        {
            "bufferView" : 10,
            "componentType" : 5126,
            "count" : 353,
            "max" : [
                1.2918057441711426,
                -0.26417505741119385,
                0.024494409561157227
            ],
            "min" : [
                0.875664234161377,
                -0.6294379234313965,
                -0.2639784812927246
            ],
            "type" : "VEC3"
        },
        {
            "bufferView" : 11,
            "componentType" : 5126,
            "count" : 353,
            "type" : "VEC3"
        },
        {
            "bufferView" : 12,
            "componentType" : 5126,
            "count" : 353,
            "type" : "VEC2"
        },
        {
            "bufferView" : 13,
            "componentType" : 5126,
            "count" : 353,
            "type" : "VEC2"
        },
        {
            "bufferView" : 14,
            "componentType" : 5123,
            "count" : 567,
            "type" : "SCALAR"
        },
        {
            "bufferView" : 15,
            "componentType" : 5126,
            "count" : 436,
            "max" : [
                1.1657367944717407,
                -0.279649019241333,
                1.120149850845337
            ],
            "min" : [
                0.7718310356140137,
                -0.6281440258026123,
                0.8796193599700928
            ],
            "type" : "VEC3"
        },
        {
            "bufferView" : 16,
            "componentType" : 5126,
            "count" : 436,
            "type" : "VEC3"
        },
        {
            "bufferView" : 17,
            "componentType" : 5126,
            "count" : 436,
            "type" : "VEC2"
        },
        {
            "bufferView" : 18,
            "componentType" : 5126,
            "count" : 436,
            "type" : "VEC2"
        },
        {
            "bufferView" : 19,
            "componentType" : 5123,
            "count" : 750,
            "type" : "SCALAR"
        },
        {
            "bufferView" : 20,
            "componentType" : 5126,
            "count" : 719,
            "max" : [
                -0.806641161441803,
                -0.21009397506713867,
                0.11189508438110352
            ],
            "min" : [
                -1.209193229675293,
                -0.6281431913375854,
                -0.2828679084777832
            ],
            "type" : "VEC3"
        },
        {
            "bufferView" : 21,
            "componentType" : 5126,
            "count" : 719,
            "type" : "VEC3"
        },
        {
            "bufferView" : 22,
            "componentType" : 5126,
            "count" : 719,
            "type" : "VEC2"
        },
        {
            "bufferView" : 23,
            "componentType" : 5126,
            "count" : 719,
            "type" : "VEC2"
        },
        {
            "bufferView" : 24,
            "componentType" : 5123,
            "count" : 1179,
            "type" : "SCALAR"
        },
        {
            "bufferView" : 25,
            "componentType" : 5126,
            "count" : 631,
            "max" : [
                -1.6060701608657837,
                -0.21009454131126404,
                1.8754925727844238
            ],
            "min" : [
                -1.9190969467163086,
                -0.6281437277793884,
                1.5415780544281006
            ],
            "type" : "VEC3"
        },
        {
            "bufferView" : 26,
            "componentType" : 5126,
            "count" : 631,
            "type" : "VEC3"
        },
        {
            "bufferView" : 27,
            "componentType" : 5126,
            "count" : 631,
            "type" : "VEC2"
        },
        {
            "bufferView" : 28,
            "componentType" : 5126,
            "count" : 631,
            "type" : "VEC2"
        },
        {
            "bufferView" : 29,
            "componentType" : 5123,
            "count" : 1035,
            "type" : "SCALAR"
        },
        {
            "bufferView" : 30,
            "componentType" : 5126,
            "count" : 679,
            "max" : [
                1.4231650829315186,
                -0.21009483933448792,
                2.427046060562134
            ],
            "min" : [
                0.9234576225280762,
                -0.6281440258026123,
                1.913429617881775
            ],
            "type" : "VEC3"
        },
        {
            "bufferView" : 31,
            "componentType" : 5126,
            "count" : 679,
            "type" : "VEC3"
        },
        {
            "bufferView" : 32,
            "componentType" : 5126,
            "count" : 679,
            "type" : "VEC2"
        },
        {
            "bufferView" : 33,
            "componentType" : 5126,
            "count" : 679,
            "type" : "VEC2"
        },
        {
            "bufferView" : 34,
            "componentType" : 5123,
            "count" : 1137,
            "type" : "SCALAR"
        },
        {
            "bufferView" : 35,
            "componentType" : 5126,
            "count" : 536,
            "max" : [
                -0.7803856134414673,
                -0.2945137619972229,
                1.6489543914794922
            ],
            "min" : [
                -1.1493793725967407,
                -0.629453718662262,
                1.318576455116272
            ],
            "type" : "VEC3"
        },
        {
            "bufferView" : 36,
            "componentType" : 5126,
            "count" : 536,
            "type" : "VEC3"
        },
        {
            "bufferView" : 37,
            "componentType" : 5126,
            "count" : 536,
            "type" : "VEC2"
        },
        {
            "bufferView" : 38,
            "componentType" : 5126,
            "count" : 536,
            "type" : "VEC2"
        },
        {
            "bufferView" : 39,
            "componentType" : 5123,
            "count" : 906,
            "type" : "SCALAR"
        },
        {
            "bufferView" : 40,
            "componentType" : 5126,
            "count" : 179,
            "max" : [
                0.1247628927230835,
                -0.3214302361011505,
                1.238295555114746
            ],
            "min" : [
                -0.07231307029724121,
                -0.6281432509422302,
                1.055702805519104
            ],
            "type" : "VEC3"
        },
        {
            "bufferView" : 41,
            "componentType" : 5126,
            "count" : 179,
            "type" : "VEC3"
        },
        {
            "bufferView" : 42,
            "componentType" : 5126,
            "count" : 179,
            "type" : "VEC2"
        },
        {
            "bufferView" : 43,
            "componentType" : 5126,
            "count" : 179,
            "type" : "VEC2"
        },
        {
            "bufferView" : 44,
            "componentType" : 5123,
            "count" : 309,
            "type" : "SCALAR"
        },
        {
            "bufferView" : 45,
            "componentType" : 5126,
            "count" : 574,
            "max" : [
                2.3047239780426025,
                -0.22871363162994385,
                0.6877070665359497
            ],
            "min" : [
                1.885894536972046,
                -0.6284768581390381,
                0.2562413215637207
            ],
            "type" : "VEC3"
        },
        {
            "bufferView" : 46,
            "componentType" : 5126,
            "count" : 574,
            "type" : "VEC3"
        },
        {
            "bufferView" : 47,
            "componentType" : 5126,
            "count" : 574,
            "type" : "VEC2"
        },
        {
            "bufferView" : 48,
            "componentType" : 5126,
            "count" : 574,
            "type" : "VEC2"
        },
        {
            "bufferView" : 49,
            "componentType" : 5123,
            "count" : 972,
            "type" : "SCALAR"
        }
    ],
    "bufferViews" : [
        {
            "buffer" : 0,
            "byteLength" : 3624,
            "byteOffset" : 0
        },
        {
            "buffer" : 0,
            "byteLength" : 3624,
            "byteOffset" : 3624
        },
        {
            "buffer" : 0,
            "byteLength" : 2416,
            "byteOffset" : 7248
        },
        {
            "buffer" : 0,
            "byteLength" : 2416,
            "byteOffset" : 9664
        },
        {
            "buffer" : 0,
            "byteLength" : 1008,
            "byteOffset" : 12080
        },
        {
            "buffer" : 0,
            "byteLength" : 3732,
            "byteOffset" : 13088
        },
        {
            "buffer" : 0,
            "byteLength" : 3732,
            "byteOffset" : 16820
        },
        {
            "buffer" : 0,
            "byteLength" : 2488,
            "byteOffset" : 20552
        },
        {
            "buffer" : 0,
            "byteLength" : 2488,
            "byteOffset" : 23040
        },
        {
            "buffer" : 0,
            "byteLength" : 1050,
            "byteOffset" : 25528
        },
        {
            "buffer" : 0,
            "byteLength" : 4236,
            "byteOffset" : 26580
        },
        {
            "buffer" : 0,
            "byteLength" : 4236,
            "byteOffset" : 30816
        },
        {
            "buffer" : 0,
            "byteLength" : 2824,
            "byteOffset" : 35052
        },
        {
            "buffer" : 0,
            "byteLength" : 2824,
            "byteOffset" : 37876
        },
        {
            "buffer" : 0,
            "byteLength" : 1134,
            "byteOffset" : 40700
        },
        {
            "buffer" : 0,
            "byteLength" : 5232,
            "byteOffset" : 41836
        },
        {
            "buffer" : 0,
            "byteLength" : 5232,
            "byteOffset" : 47068
        },
        {
            "buffer" : 0,
            "byteLength" : 3488,
            "byteOffset" : 52300
        },
        {
            "buffer" : 0,
            "byteLength" : 3488,
            "byteOffset" : 55788
        },
        {
            "buffer" : 0,
            "byteLength" : 1500,
            "byteOffset" : 59276
        },
        {
            "buffer" : 0,
            "byteLength" : 8628,
            "byteOffset" : 60776
        },
        {
            "buffer" : 0,
            "byteLength" : 8628,
            "byteOffset" : 69404
        },
        {
            "buffer" : 0,
            "byteLength" : 5752,
            "byteOffset" : 78032
        },
        {
            "buffer" : 0,
            "byteLength" : 5752,
            "byteOffset" : 83784
        },
        {
            "buffer" : 0,
            "byteLength" : 2358,
            "byteOffset" : 89536
        },
        {
            "buffer" : 0,
            "byteLength" : 7572,
            "byteOffset" : 91896
        },
        {
            "buffer" : 0,
            "byteLength" : 7572,
            "byteOffset" : 99468
        },
        {
            "buffer" : 0,
            "byteLength" : 5048,
            "byteOffset" : 107040
        },
        {
            "buffer" : 0,
            "byteLength" : 5048,
            "byteOffset" : 112088
        },
        {
            "buffer" : 0,
            "byteLength" : 2070,
            "byteOffset" : 117136
        },
        {
            "buffer" : 0,
            "byteLength" : 8148,
            "byteOffset" : 119208
        },
        {
            "buffer" : 0,
            "byteLength" : 8148,
            "byteOffset" : 127356
        },
        {
            "buffer" : 0,
            "byteLength" : 5432,
            "byteOffset" : 135504
        },
        {
            "buffer" : 0,
            "byteLength" : 5432,
            "byteOffset" : 140936
        },
        {
            "buffer" : 0,
            "byteLength" : 2274,
            "byteOffset" : 146368
        },
        {
            "buffer" : 0,
            "byteLength" : 6432,
            "byteOffset" : 148644
        },
        {
            "buffer" : 0,
            "byteLength" : 6432,
            "byteOffset" : 155076
        },
        {
            "buffer" : 0,
            "byteLength" : 4288,
            "byteOffset" : 161508
        },
        {
            "buffer" : 0,
            "byteLength" : 4288,
            "byteOffset" : 165796
        },
        {
            "buffer" : 0,
            "byteLength" : 1812,
            "byteOffset" : 170084
        },
        {
            "buffer" : 0,
            "byteLength" : 2148,
            "byteOffset" : 171896
        },
        {
            "buffer" : 0,
            "byteLength" : 2148,
            "byteOffset" : 174044
        },
        {
            "buffer" : 0,
            "byteLength" : 1432,
            "byteOffset" : 176192
        },
        {
            "buffer" : 0,
            "byteLength" : 1432,
            "byteOffset" : 177624
        },
        {
            "buffer" : 0,
            "byteLength" : 618,
            "byteOffset" : 179056
        },
        {
            "buffer" : 0,
            "byteLength" : 6888,
            "byteOffset" : 179676
        },
        {
            "buffer" : 0,
            "byteLength" : 6888,
            "byteOffset" : 186564
        },
        {
            "buffer" : 0,
            "byteLength" : 4592,
            "byteOffset" : 193452
        },
        {
            "buffer" : 0,
            "byteLength" : 4592,
            "byteOffset" : 198044
        },
        {
            "buffer" : 0,
            "byteLength" : 1944,
            "byteOffset" : 202636
        }
    ],
    "buffers" : [
        {
            "byteLength" : 204580,
            "uri" : "data:application/octet-stream;base64,"
        }
    ]
}
