{
    "asset" : {
        "generator" : "Khronos glTF Blender I/O v1.3.48",
        "version" : "2.0"
    },
    "scene" : 0,
    "scenes" : [
        {
            "name" : "Scene",
            "nodes" : [
                0,
                1,
                2,
                3,
                4,
                5,
                6,
                7,
                8,
                9
            ]
        }
    ],
    "nodes" : [
        {
            "mesh" : 0,
            "name" : "ARBRE 04",
            "scale" : [
                0.05111974477767944,
                0.05111974477767944,
                0.05111974477767944
            ],
            "translation" : [
                -0.0019223690032958984,
                -0.0018240809440612793,
                -0.010880440473556519
            ]
        },
        {
            "mesh" : 1,
            "name" : "ARBRE 05",
            "scale" : [
                0.05111974477767944,
                0.05111974477767944,
                0.05111974477767944
            ],
            "translation" : [
                -0.0017795562744140625,
                0.0023173093795776367,
                -0.009686589241027832
            ]
        },
        {
            "mesh" : 2,
            "name" : "ARBRE 03",
            "scale" : [
                0.05111974477767944,
                0.05111974477767944,
                0.05111974477767944
            ],
            "translation" : [
                0.0016045570373535156,
                0.0023173093795776367,
                -0.0008043050765991211
            ]
        },
        {
            "mesh" : 3,
            "name" : "ARBRE 08",
            "rotation" : [
                0.6603748202323914,
                0.4822409749031067,
                0.06785482913255692,
                -0.5716156959533691
            ],
            "scale" : [
                2.5241570472717285,
                2.5241572856903076,
                2.5241570472717285
            ],
            "translation" : [
                0.0002950429916381836,
                0.00020053726620972157,
                -0.0029325485229492188
            ]
        },
        {
            "mesh" : 4,
            "name" : "ARBRE 07",
            "scale" : [
                0.05111974477767944,
                0.05111974477767944,
                0.05111974477767944
            ],
            "translation" : [
                0.0009905099868774414,
                -0.0003489851951599121,
                0.0011692047119140625
            ]
        },
        {
            "mesh" : 5,
            "name" : "ARBRE 10",
            "scale" : [
                0.05111974477767944,
                0.05111974477767944,
                0.05111974477767944
            ],
            "translation" : [
                -0.0017795562744140625,
                0.0023173093795776367,
                -0.004678487777709961
            ]
        },
        {
            "mesh" : 6,
            "name" : "ARBRE 09",
            "rotation" : [
                0.7071068286895752,
                0,
                0,
                0.7071067094802856
            ],
            "scale" : [
                0.8350093364715576,
                0.8350093364715576,
                0.8350093364715576
            ],
            "translation" : [
                -0.0006199181079864502,
                0.0007402896881103516,
                0.00476384162902832
            ]
        },
        {
            "mesh" : 7,
            "name" : "ARBRE 02",
            "rotation" : [
                0.699169397354126,
                -0.19304896891117096,
                -0.1252317577600479,
                0.6769130229949951
            ],
            "scale" : [
                3.3642895221710205,
                3.3642897605895996,
                3.3642895221710205
            ],
            "translation" : [
                -0.000743567943572998,
                0.05595793575048447,
                -0.005703270435333252
            ]
        },
        {
            "mesh" : 8,
            "name" : "ARBRE 06",
            "rotation" : [
                0.699169397354126,
                -0.19304896891117096,
                -0.1252317577600479,
                0.6769130229949951
            ],
            "scale" : [
                2.442777395248413,
                2.442777633666992,
                2.442777395248413
            ],
            "translation" : [
                0.007045269012451172,
                0.004142463207244873,
                0.0014445185661315918
            ]
        },
        {
            "mesh" : 9,
            "name" : "ARBRE 01",
            "rotation" : [
                0.6397889256477356,
                0.30165109038352966,
                -0.3019580543041229,
                0.6391385793685913
            ],
            "scale" : [
                0.12636232376098633,
                0.12636233866214752,
                0.12636235356330872
            ],
            "translation" : [
                -0.8849669694900513,
                1.6612634658813477,
                -0.9593425989151001
            ]
        }
    ],
    "meshes" : [
        {
            "name" : "Cylinder.016",
            "primitives" : [
                {
                    "attributes" : {
                        "POSITION" : 0,
                        "NORMAL" : 1,
                        "TEXCOORD_0" : 2
                    },
                    "indices" : 3
                }
            ]
        },
        {
            "name" : "Cylinder.017",
            "primitives" : [
                {
                    "attributes" : {
                        "POSITION" : 4,
                        "NORMAL" : 5,
                        "TEXCOORD_0" : 6
                    },
                    "indices" : 3
                }
            ]
        },
        {
            "name" : "Cylinder.015",
            "primitives" : [
                {
                    "attributes" : {
                        "POSITION" : 7,
                        "NORMAL" : 8,
                        "TEXCOORD_0" : 9
                    },
                    "indices" : 3
                }
            ]
        },
        {
            "name" : "Sphere_cell.013_Sphere_cell.002",
            "primitives" : [
                {
                    "attributes" : {
                        "POSITION" : 10,
                        "NORMAL" : 11,
                        "TEXCOORD_0" : 12
                    },
                    "indices" : 13
                }
            ]
        },
        {
            "name" : "Cylinder.014",
            "primitives" : [
                {
                    "attributes" : {
                        "POSITION" : 14,
                        "NORMAL" : 15,
                        "TEXCOORD_0" : 16
                    },
                    "indices" : 3
                }
            ]
        },
        {
            "name" : "Cylinder.001",
            "primitives" : [
                {
                    "attributes" : {
                        "POSITION" : 17,
                        "NORMAL" : 18,
                        "TEXCOORD_0" : 19
                    },
                    "indices" : 3
                }
            ]
        },
        {
            "name" : "Sphere_cell.011",
            "primitives" : [
                {
                    "attributes" : {
                        "POSITION" : 20,
                        "NORMAL" : 21,
                        "TEXCOORD_0" : 22
                    },
                    "indices" : 23
                }
            ]
        },
        {
            "name" : "Sphere_cell.012_Sphere_cell.002",
            "primitives" : [
                {
                    "attributes" : {
                        "POSITION" : 24,
                        "NORMAL" : 25,
                        "TEXCOORD_0" : 26
                    },
                    "indices" : 27
                }
            ]
        },
        {
            "name" : "Sphere_cell.012_Sphere_cell.008",
            "primitives" : [
                {
                    "attributes" : {
                        "POSITION" : 28,
                        "NORMAL" : 29,
                        "TEXCOORD_0" : 30
                    },
                    "indices" : 31
                }
            ]
        },
        {
            "name" : "BezierCurve.006",
            "primitives" : [
                {
                    "attributes" : {
                        "POSITION" : 32,
                        "NORMAL" : 33,
                        "TEXCOORD_0" : 34
                    },
                    "indices" : 35
                }
            ]
        }
    ],
    "accessors" : [
        {
            "bufferView" : 0,
            "componentType" : 5126,
            "count" : 72,
            "max" : [
                -41.877342224121094,
                73.40348815917969,
                0.9999996423721313
            ],
            "min" : [
                -43.877342224121094,
                -13.019886016845703,
                -0.9999996423721313
            ],
            "type" : "VEC3"
        },
        {
            "bufferView" : 1,
            "componentType" : 5126,
            "count" : 72,
            "type" : "VEC3"
        },
        {
            "bufferView" : 2,
            "componentType" : 5126,
            "count" : 72,
            "type" : "VEC2"
        },
        {
            "bufferView" : 3,
            "componentType" : 5123,
            "count" : 132,
            "type" : "SCALAR"
        },
        {
            "bufferView" : 4,
            "componentType" : 5126,
            "count" : 72,
            "max" : [
                -29.059003829956055,
                61.615257263183594,
                36.82161331176758
            ],
            "min" : [
                -31.059003829956055,
                -13.100899696350098,
                34.82161331176758
            ],
            "type" : "VEC3"
        },
        {
            "bufferView" : 5,
            "componentType" : 5126,
            "count" : 72,
            "type" : "VEC3"
        },
        {
            "bufferView" : 6,
            "componentType" : 5126,
            "count" : 72,
            "type" : "VEC2"
        },
        {
            "bufferView" : 7,
            "componentType" : 5126,
            "count" : 72,
            "max" : [
                33.01448059082031,
                73.32247161865234,
                8.246520042419434
            ],
            "min" : [
                31.014480590820312,
                -13.100899696350098,
                6.246520042419434
            ],
            "type" : "VEC3"
        },
        {
            "bufferView" : 8,
            "componentType" : 5126,
            "count" : 72,
            "type" : "VEC3"
        },
        {
            "bufferView" : 9,
            "componentType" : 5126,
            "count" : 72,
            "type" : "VEC2"
        },
        {
            "bufferView" : 10,
            "componentType" : 5126,
            "count" : 706,
            "max" : [
                1.2241711616516113,
                -0.6688857674598694,
                0.5929434895515442
            ],
            "min" : [
                0.36814969778060913,
                -0.9514649510383606,
                -0.5446466207504272
            ],
            "type" : "VEC3"
        },
        {
            "bufferView" : 11,
            "componentType" : 5126,
            "count" : 706,
            "type" : "VEC3"
        },
        {
            "bufferView" : 12,
            "componentType" : 5126,
            "count" : 706,
            "type" : "VEC2"
        },
        {
            "bufferView" : 13,
            "componentType" : 5123,
            "count" : 1785,
            "type" : "SCALAR"
        },
        {
            "bufferView" : 14,
            "componentType" : 5126,
            "count" : 72,
            "max" : [
                23.17218589782715,
                60.66974639892578,
                41.558876037597656
            ],
            "min" : [
                21.17218589782715,
                -13.048742294311523,
                39.558876037597656
            ],
            "type" : "VEC3"
        },
        {
            "bufferView" : 15,
            "componentType" : 5126,
            "count" : 72,
            "type" : "VEC3"
        },
        {
            "bufferView" : 16,
            "componentType" : 5126,
            "count" : 72,
            "type" : "VEC2"
        },
        {
            "bufferView" : 17,
            "componentType" : 5126,
            "count" : 72,
            "max" : [
                -29.05900001525879,
                61.61524963378906,
                7.770044326782227
            ],
            "min" : [
                -31.05900001525879,
                -13.100897789001465,
                5.770044326782227
            ],
            "type" : "VEC3"
        },
        {
            "bufferView" : 18,
            "componentType" : 5126,
            "count" : 72,
            "type" : "VEC3"
        },
        {
            "bufferView" : 19,
            "componentType" : 5126,
            "count" : 72,
            "type" : "VEC2"
        },
        {
            "bufferView" : 20,
            "componentType" : 5126,
            "count" : 1618,
            "max" : [
                0.8096276521682739,
                3.322754383087158,
                0.853369414806366
            ],
            "min" : [
                0.29418572783470154,
                2.580124616622925,
                -2.663943290710449
            ],
            "type" : "VEC3"
        },
        {
            "bufferView" : 21,
            "componentType" : 5126,
            "count" : 1618,
            "type" : "VEC3"
        },
        {
            "bufferView" : 22,
            "componentType" : 5126,
            "count" : 1618,
            "type" : "VEC2"
        },
        {
            "bufferView" : 23,
            "componentType" : 5123,
            "count" : 3108,
            "type" : "SCALAR"
        },
        {
            "bufferView" : 24,
            "componentType" : 5126,
            "count" : 1677,
            "max" : [
                -0.006011590361595154,
                0.4010303020477295,
                0.2753259241580963
            ],
            "min" : [
                -0.5282571911811829,
                0.24791817367076874,
                -0.6649343371391296
            ],
            "type" : "VEC3"
        },
        {
            "bufferView" : 25,
            "componentType" : 5126,
            "count" : 1677,
            "type" : "VEC3"
        },
        {
            "bufferView" : 26,
            "componentType" : 5126,
            "count" : 1677,
            "type" : "VEC2"
        },
        {
            "bufferView" : 27,
            "componentType" : 5123,
            "count" : 3903,
            "type" : "SCALAR"
        },
        {
            "bufferView" : 28,
            "componentType" : 5126,
            "count" : 1950,
            "max" : [
                0.4286642074584961,
                -0.16075077652931213,
                0.15400856733322144
            ],
            "min" : [
                -0.4075329899787903,
                -0.40796589851379395,
                -1.1792986392974854
            ],
            "type" : "VEC3"
        },
        {
            "bufferView" : 29,
            "componentType" : 5126,
            "count" : 1950,
            "type" : "VEC3"
        },
        {
            "bufferView" : 30,
            "componentType" : 5126,
            "count" : 1950,
            "type" : "VEC2"
        },
        {
            "bufferView" : 31,
            "componentType" : 5123,
            "count" : 5094,
            "type" : "SCALAR"
        },
        {
            "bufferView" : 32,
            "componentType" : 5126,
            "count" : 1504,
            "max" : [
                4.518286228179932,
                2.6237258911132812,
                18.916908264160156
            ],
            "min" : [
                -2.5255792140960693,
                -2.325362205505371,
                -13.645875930786133
            ],
            "type" : "VEC3"
        },
        {
            "bufferView" : 33,
            "componentType" : 5126,
            "count" : 1504,
            "type" : "VEC3"
        },
        {
            "bufferView" : 34,
            "componentType" : 5126,
            "count" : 1504,
            "type" : "VEC2"
        },
        {
            "bufferView" : 35,
            "componentType" : 5123,
            "count" : 4416,
            "type" : "SCALAR"
        }
    ],
    "bufferViews" : [
        {
            "buffer" : 0,
            "byteLength" : 864,
            "byteOffset" : 0
        },
        {
            "buffer" : 0,
            "byteLength" : 864,
            "byteOffset" : 864
        },
        {
            "buffer" : 0,
            "byteLength" : 576,
            "byteOffset" : 1728
        },
        {
            "buffer" : 0,
            "byteLength" : 264,
            "byteOffset" : 2304
        },
        {
            "buffer" : 0,
            "byteLength" : 864,
            "byteOffset" : 2568
        },
        {
            "buffer" : 0,
            "byteLength" : 864,
            "byteOffset" : 3432
        },
        {
            "buffer" : 0,
            "byteLength" : 576,
            "byteOffset" : 4296
        },
        {
            "buffer" : 0,
            "byteLength" : 864,
            "byteOffset" : 4872
        },
        {
            "buffer" : 0,
            "byteLength" : 864,
            "byteOffset" : 5736
        },
        {
            "buffer" : 0,
            "byteLength" : 576,
            "byteOffset" : 6600
        },
        {
            "buffer" : 0,
            "byteLength" : 8472,
            "byteOffset" : 7176
        },
        {
            "buffer" : 0,
            "byteLength" : 8472,
            "byteOffset" : 15648
        },
        {
            "buffer" : 0,
            "byteLength" : 5648,
            "byteOffset" : 24120
        },
        {
            "buffer" : 0,
            "byteLength" : 3570,
            "byteOffset" : 29768
        },
        {
            "buffer" : 0,
            "byteLength" : 864,
            "byteOffset" : 33340
        },
        {
            "buffer" : 0,
            "byteLength" : 864,
            "byteOffset" : 34204
        },
        {
            "buffer" : 0,
            "byteLength" : 576,
            "byteOffset" : 35068
        },
        {
            "buffer" : 0,
            "byteLength" : 864,
            "byteOffset" : 35644
        },
        {
            "buffer" : 0,
            "byteLength" : 864,
            "byteOffset" : 36508
        },
        {
            "buffer" : 0,
            "byteLength" : 576,
            "byteOffset" : 37372
        },
        {
            "buffer" : 0,
            "byteLength" : 19416,
            "byteOffset" : 37948
        },
        {
            "buffer" : 0,
            "byteLength" : 19416,
            "byteOffset" : 57364
        },
        {
            "buffer" : 0,
            "byteLength" : 12944,
            "byteOffset" : 76780
        },
        {
            "buffer" : 0,
            "byteLength" : 6216,
            "byteOffset" : 89724
        },
        {
            "buffer" : 0,
            "byteLength" : 20124,
            "byteOffset" : 95940
        },
        {
            "buffer" : 0,
            "byteLength" : 20124,
            "byteOffset" : 116064
        },
        {
            "buffer" : 0,
            "byteLength" : 13416,
            "byteOffset" : 136188
        },
        {
            "buffer" : 0,
            "byteLength" : 7806,
            "byteOffset" : 149604
        },
        {
            "buffer" : 0,
            "byteLength" : 23400,
            "byteOffset" : 157412
        },
        {
            "buffer" : 0,
            "byteLength" : 23400,
            "byteOffset" : 180812
        },
        {
            "buffer" : 0,
            "byteLength" : 15600,
            "byteOffset" : 204212
        },
        {
            "buffer" : 0,
            "byteLength" : 10188,
            "byteOffset" : 219812
        },
        {
            "buffer" : 0,
            "byteLength" : 18048,
            "byteOffset" : 230000
        },
        {
            "buffer" : 0,
            "byteLength" : 18048,
            "byteOffset" : 248048
        },
        {
            "buffer" : 0,
            "byteLength" : 12032,
            "byteOffset" : 266096
        },
        {
            "buffer" : 0,
            "byteLength" : 8832,
            "byteOffset" : 278128
        }
    ],
    "buffers" : [
        {
            "byteLength" : 286960,
            "uri" : "data:application/octet-stream;base64,"
        }
    ]
}
