{
    "asset" : {
        "generator" : "Khronos glTF Blender I/O v1.5.17",
        "version" : "2.0"
    },
    "scene" : 0,
    "scenes" : [
        {
            "name" : "Scene",
            "nodes" : [
                0,
                1,
                2,
                3,
                4,
                5,
                6,
                7,
                8,
                9
            ]
        }
    ],
    "nodes" : [
        {
            "mesh" : 0,
            "name" : "rune_07.001",
            "rotation" : [
                0,
                0,
                -1,
                7.549790126404332e-08
            ],
            "scale" : [
                -1.2659940719604492,
                0.6329970359802246,
                0.6329970359802246
            ]
        },
        {
            "mesh" : 1,
            "name" : "rune_09.001",
            "rotation" : [
                0,
                0,
                -1,
                7.549790126404332e-08
            ],
            "scale" : [
                -1.2659940719604492,
                0.6329970359802246,
                0.6329970359802246
            ]
        },
        {
            "mesh" : 2,
            "name" : "rune_03.001",
            "rotation" : [
                0,
                0,
                -1,
                7.549790126404332e-08
            ],
            "scale" : [
                -1.2659940719604492,
                0.6329970359802246,
                0.6329970359802246
            ]
        },
        {
            "mesh" : 3,
            "name" : "rune_10.001",
            "rotation" : [
                0,
                0,
                -1,
                7.549790126404332e-08
            ],
            "scale" : [
                -1.2659940719604492,
                0.6329970359802246,
                0.6329970359802246
            ]
        },
        {
            "mesh" : 4,
            "name" : "rune_02.001",
            "rotation" : [
                0,
                0,
                -1,
                7.549790126404332e-08
            ],
            "scale" : [
                -1.2659940719604492,
                0.6329970359802246,
                0.6329970359802246
            ]
        },
        {
            "mesh" : 5,
            "name" : "rune_05.001",
            "rotation" : [
                0,
                0,
                -1,
                7.549790126404332e-08
            ],
            "scale" : [
                -1.2659940719604492,
                0.6329970359802246,
                0.6329970359802246
            ]
        },
        {
            "mesh" : 6,
            "name" : "rune_08.001",
            "rotation" : [
                0,
                0,
                -1,
                7.549790126404332e-08
            ],
            "scale" : [
                -1.2659940719604492,
                0.6329970359802246,
                0.6329970359802246
            ]
        },
        {
            "mesh" : 7,
            "name" : "rune_06.001",
            "rotation" : [
                0,
                0,
                -1,
                7.549790126404332e-08
            ],
            "scale" : [
                -1.2659940719604492,
                0.6329970359802246,
                0.6329970359802246
            ]
        },
        {
            "mesh" : 8,
            "name" : "rune_04.001",
            "rotation" : [
                0,
                0,
                -1,
                7.549790126404332e-08
            ],
            "scale" : [
                -1.2659940719604492,
                0.6329970359802246,
                0.6329970359802246
            ]
        },
        {
            "mesh" : 9,
            "name" : "rune_01.001",
            "rotation" : [
                0,
                0,
                -1,
                7.549790126404332e-08
            ],
            "scale" : [
                -1.2659940719604492,
                0.6329970359802246,
                0.6329970359802246
            ]
        }
    ],
    "materials" : [
        {
            "doubleSided" : true,
            "name" : "Material",
            "pbrMetallicRoughness" : {
                "baseColorFactor" : [
                    0.800000011920929,
                    0.800000011920929,
                    0.800000011920929,
                    1
                ],
                "metallicFactor" : 0,
                "roughnessFactor" : 0.4000000059604645
            }
        }
    ],
    "meshes" : [
        {
            "name" : "Cube.063",
            "primitives" : [
                {
                    "attributes" : {
                        "POSITION" : 0,
                        "NORMAL" : 1,
                        "TEXCOORD_0" : 2
                    },
                    "indices" : 3,
                    "material" : 0
                }
            ]
        },
        {
            "name" : "Cube.064",
            "primitives" : [
                {
                    "attributes" : {
                        "POSITION" : 4,
                        "NORMAL" : 5,
                        "TEXCOORD_0" : 6
                    },
                    "indices" : 7,
                    "material" : 0
                }
            ]
        },
        {
            "name" : "Cube.065",
            "primitives" : [
                {
                    "attributes" : {
                        "POSITION" : 8,
                        "NORMAL" : 9,
                        "TEXCOORD_0" : 10
                    },
                    "indices" : 11,
                    "material" : 0
                }
            ]
        },
        {
            "name" : "Cube.066",
            "primitives" : [
                {
                    "attributes" : {
                        "POSITION" : 12,
                        "NORMAL" : 13,
                        "TEXCOORD_0" : 14
                    },
                    "indices" : 15,
                    "material" : 0
                }
            ]
        },
        {
            "name" : "Cube.067",
            "primitives" : [
                {
                    "attributes" : {
                        "POSITION" : 16,
                        "NORMAL" : 17,
                        "TEXCOORD_0" : 18
                    },
                    "indices" : 19,
                    "material" : 0
                }
            ]
        },
        {
            "name" : "Cube.068",
            "primitives" : [
                {
                    "attributes" : {
                        "POSITION" : 20,
                        "NORMAL" : 21,
                        "TEXCOORD_0" : 22
                    },
                    "indices" : 23,
                    "material" : 0
                }
            ]
        },
        {
            "name" : "Cube.069",
            "primitives" : [
                {
                    "attributes" : {
                        "POSITION" : 24,
                        "NORMAL" : 25,
                        "TEXCOORD_0" : 26
                    },
                    "indices" : 27,
                    "material" : 0
                }
            ]
        },
        {
            "name" : "Cube.070",
            "primitives" : [
                {
                    "attributes" : {
                        "POSITION" : 28,
                        "NORMAL" : 29,
                        "TEXCOORD_0" : 30
                    },
                    "indices" : 31,
                    "material" : 0
                }
            ]
        },
        {
            "name" : "Cube.071",
            "primitives" : [
                {
                    "attributes" : {
                        "POSITION" : 32,
                        "NORMAL" : 33,
                        "TEXCOORD_0" : 34
                    },
                    "indices" : 35,
                    "material" : 0
                }
            ]
        },
        {
            "name" : "Cube.072",
            "primitives" : [
                {
                    "attributes" : {
                        "POSITION" : 36,
                        "NORMAL" : 37,
                        "TEXCOORD_0" : 38
                    },
                    "indices" : 39,
                    "material" : 0
                }
            ]
        }
    ],
    "accessors" : [
        {
            "bufferView" : 0,
            "componentType" : 5126,
            "count" : 423,
            "max" : [
                -0.32094526290893555,
                0.9989737868309021,
                -1.3168151378631592
            ],
            "min" : [
                -0.9220426082611084,
                0.39897361397743225,
                -1.6168150901794434
            ],
            "type" : "VEC3"
        },
        {
            "bufferView" : 1,
            "componentType" : 5126,
            "count" : 423,
            "type" : "VEC3"
        },
        {
            "bufferView" : 2,
            "componentType" : 5126,
            "count" : 423,
            "type" : "VEC2"
        },
        {
            "bufferView" : 3,
            "componentType" : 5123,
            "count" : 843,
            "type" : "SCALAR"
        },
        {
            "bufferView" : 4,
            "componentType" : 5126,
            "count" : 672,
            "max" : [
                -2.382152795791626,
                0.9989732503890991,
                1.174444317817688
            ],
            "min" : [
                -2.984844923019409,
                0.09897314757108688,
                0.874444305896759
            ],
            "type" : "VEC3"
        },
        {
            "bufferView" : 5,
            "componentType" : 5126,
            "count" : 672,
            "type" : "VEC3"
        },
        {
            "bufferView" : 6,
            "componentType" : 5126,
            "count" : 672,
            "type" : "VEC2"
        },
        {
            "bufferView" : 7,
            "componentType" : 5123,
            "count" : 1128,
            "type" : "SCALAR"
        },
        {
            "bufferView" : 8,
            "componentType" : 5126,
            "count" : 609,
            "max" : [
                0.9091647863388062,
                0.9989741444587708,
                2.1890735626220703
            ],
            "min" : [
                0.3140676021575928,
                0.39897406101226807,
                1.889073371887207
            ],
            "type" : "VEC3"
        },
        {
            "bufferView" : 9,
            "componentType" : 5126,
            "count" : 609,
            "type" : "VEC3"
        },
        {
            "bufferView" : 10,
            "componentType" : 5126,
            "count" : 609,
            "type" : "VEC2"
        },
        {
            "bufferView" : 11,
            "componentType" : 5123,
            "count" : 1017,
            "type" : "SCALAR"
        },
        {
            "bufferView" : 12,
            "componentType" : 5126,
            "count" : 728,
            "max" : [
                2.6751580238342285,
                0.9989747405052185,
                0.6226544380187988
            ],
            "min" : [
                2.222501277923584,
                0.09897463023662567,
                0.021670624613761902
            ],
            "type" : "VEC3"
        },
        {
            "bufferView" : 13,
            "componentType" : 5126,
            "count" : 728,
            "type" : "VEC3"
        },
        {
            "bufferView" : 14,
            "componentType" : 5126,
            "count" : 728,
            "type" : "VEC2"
        },
        {
            "bufferView" : 15,
            "componentType" : 5123,
            "count" : 1236,
            "type" : "SCALAR"
        },
        {
            "bufferView" : 16,
            "componentType" : 5126,
            "count" : 1335,
            "max" : [
                1.0332000255584717,
                0.9989741444587708,
                0.3536296486854553
            ],
            "min" : [
                0.4284205436706543,
                -0.5010259747505188,
                -0.2533811330795288
            ],
            "type" : "VEC3"
        },
        {
            "bufferView" : 17,
            "componentType" : 5126,
            "count" : 1335,
            "type" : "VEC3"
        },
        {
            "bufferView" : 18,
            "componentType" : 5126,
            "count" : 1335,
            "type" : "VEC2"
        },
        {
            "bufferView" : 19,
            "componentType" : 5123,
            "count" : 2235,
            "type" : "SCALAR"
        },
        {
            "bufferView" : 20,
            "componentType" : 5126,
            "count" : 682,
            "max" : [
                1.6882445812225342,
                0.9989744424819946,
                -0.5219733715057373
            ],
            "min" : [
                1.2400537729263306,
                0.09897427260875702,
                -1.2692888975143433
            ],
            "type" : "VEC3"
        },
        {
            "bufferView" : 21,
            "componentType" : 5126,
            "count" : 682,
            "type" : "VEC3"
        },
        {
            "bufferView" : 22,
            "componentType" : 5126,
            "count" : 682,
            "type" : "VEC2"
        },
        {
            "bufferView" : 23,
            "componentType" : 5123,
            "count" : 1362,
            "type" : "SCALAR"
        },
        {
            "bufferView" : 24,
            "componentType" : 5126,
            "count" : 482,
            "max" : [
                2.116490125656128,
                0.9989737868309021,
                2.7015295028686523
            ],
            "min" : [
                1.5134072303771973,
                0.3988143503665924,
                2.40152907371521
            ],
            "type" : "VEC3"
        },
        {
            "bufferView" : 25,
            "componentType" : 5126,
            "count" : 482,
            "type" : "VEC3"
        },
        {
            "bufferView" : 26,
            "componentType" : 5126,
            "count" : 482,
            "type" : "VEC2"
        },
        {
            "bufferView" : 27,
            "componentType" : 5123,
            "count" : 798,
            "type" : "SCALAR"
        },
        {
            "bufferView" : 28,
            "componentType" : 5126,
            "count" : 2576,
            "max" : [
                -0.8629621863365173,
                0.9989736676216125,
                2.1526553630828857
            ],
            "min" : [
                -2.128934383392334,
                -0.8010265231132507,
                1.8247084617614746
            ],
            "type" : "VEC3"
        },
        {
            "bufferView" : 29,
            "componentType" : 5126,
            "count" : 2576,
            "type" : "VEC3"
        },
        {
            "bufferView" : 30,
            "componentType" : 5126,
            "count" : 2576,
            "type" : "VEC2"
        },
        {
            "bufferView" : 31,
            "componentType" : 5123,
            "count" : 4332,
            "type" : "SCALAR"
        },
        {
            "bufferView" : 32,
            "componentType" : 5126,
            "count" : 331,
            "max" : [
                0.8364217281341553,
                0.998974084854126,
                -2.5623655319213867
            ],
            "min" : [
                0.23260736465454102,
                0.3989739716053009,
                -2.86236572265625
            ],
            "type" : "VEC3"
        },
        {
            "bufferView" : 33,
            "componentType" : 5126,
            "count" : 331,
            "type" : "VEC3"
        },
        {
            "bufferView" : 34,
            "componentType" : 5126,
            "count" : 331,
            "type" : "VEC2"
        },
        {
            "bufferView" : 35,
            "componentType" : 5123,
            "count" : 669,
            "type" : "SCALAR"
        },
        {
            "bufferView" : 36,
            "componentType" : 5126,
            "count" : 1540,
            "max" : [
                -0.3877091407775879,
                0.9989736676216125,
                0.3563232421875
            ],
            "min" : [
                -1.1221961975097656,
                -0.5035051703453064,
                -0.25295335054397583
            ],
            "type" : "VEC3"
        },
        {
            "bufferView" : 37,
            "componentType" : 5126,
            "count" : 1540,
            "type" : "VEC3"
        },
        {
            "bufferView" : 38,
            "componentType" : 5126,
            "count" : 1540,
            "type" : "VEC2"
        },
        {
            "bufferView" : 39,
            "componentType" : 5123,
            "count" : 2562,
            "type" : "SCALAR"
        }
    ],
    "bufferViews" : [
        {
            "buffer" : 0,
            "byteLength" : 5076,
            "byteOffset" : 0
        },
        {
            "buffer" : 0,
            "byteLength" : 5076,
            "byteOffset" : 5076
        },
        {
            "buffer" : 0,
            "byteLength" : 3384,
            "byteOffset" : 10152
        },
        {
            "buffer" : 0,
            "byteLength" : 1686,
            "byteOffset" : 13536
        },
        {
            "buffer" : 0,
            "byteLength" : 8064,
            "byteOffset" : 15224
        },
        {
            "buffer" : 0,
            "byteLength" : 8064,
            "byteOffset" : 23288
        },
        {
            "buffer" : 0,
            "byteLength" : 5376,
            "byteOffset" : 31352
        },
        {
            "buffer" : 0,
            "byteLength" : 2256,
            "byteOffset" : 36728
        },
        {
            "buffer" : 0,
            "byteLength" : 7308,
            "byteOffset" : 38984
        },
        {
            "buffer" : 0,
            "byteLength" : 7308,
            "byteOffset" : 46292
        },
        {
            "buffer" : 0,
            "byteLength" : 4872,
            "byteOffset" : 53600
        },
        {
            "buffer" : 0,
            "byteLength" : 2034,
            "byteOffset" : 58472
        },
        {
            "buffer" : 0,
            "byteLength" : 8736,
            "byteOffset" : 60508
        },
        {
            "buffer" : 0,
            "byteLength" : 8736,
            "byteOffset" : 69244
        },
        {
            "buffer" : 0,
            "byteLength" : 5824,
            "byteOffset" : 77980
        },
        {
            "buffer" : 0,
            "byteLength" : 2472,
            "byteOffset" : 83804
        },
        {
            "buffer" : 0,
            "byteLength" : 16020,
            "byteOffset" : 86276
        },
        {
            "buffer" : 0,
            "byteLength" : 16020,
            "byteOffset" : 102296
        },
        {
            "buffer" : 0,
            "byteLength" : 10680,
            "byteOffset" : 118316
        },
        {
            "buffer" : 0,
            "byteLength" : 4470,
            "byteOffset" : 128996
        },
        {
            "buffer" : 0,
            "byteLength" : 8184,
            "byteOffset" : 133468
        },
        {
            "buffer" : 0,
            "byteLength" : 8184,
            "byteOffset" : 141652
        },
        {
            "buffer" : 0,
            "byteLength" : 5456,
            "byteOffset" : 149836
        },
        {
            "buffer" : 0,
            "byteLength" : 2724,
            "byteOffset" : 155292
        },
        {
            "buffer" : 0,
            "byteLength" : 5784,
            "byteOffset" : 158016
        },
        {
            "buffer" : 0,
            "byteLength" : 5784,
            "byteOffset" : 163800
        },
        {
            "buffer" : 0,
            "byteLength" : 3856,
            "byteOffset" : 169584
        },
        {
            "buffer" : 0,
            "byteLength" : 1596,
            "byteOffset" : 173440
        },
        {
            "buffer" : 0,
            "byteLength" : 30912,
            "byteOffset" : 175036
        },
        {
            "buffer" : 0,
            "byteLength" : 30912,
            "byteOffset" : 205948
        },
        {
            "buffer" : 0,
            "byteLength" : 20608,
            "byteOffset" : 236860
        },
        {
            "buffer" : 0,
            "byteLength" : 8664,
            "byteOffset" : 257468
        },
        {
            "buffer" : 0,
            "byteLength" : 3972,
            "byteOffset" : 266132
        },
        {
            "buffer" : 0,
            "byteLength" : 3972,
            "byteOffset" : 270104
        },
        {
            "buffer" : 0,
            "byteLength" : 2648,
            "byteOffset" : 274076
        },
        {
            "buffer" : 0,
            "byteLength" : 1338,
            "byteOffset" : 276724
        },
        {
            "buffer" : 0,
            "byteLength" : 18480,
            "byteOffset" : 278064
        },
        {
            "buffer" : 0,
            "byteLength" : 18480,
            "byteOffset" : 296544
        },
        {
            "buffer" : 0,
            "byteLength" : 12320,
            "byteOffset" : 315024
        },
        {
            "buffer" : 0,
            "byteLength" : 5124,
            "byteOffset" : 327344
        }
    ],
    "buffers" : [
        {
            "byteLength" : 332468,
            "uri" : "data:application/octet-stream;base64,"
        }
    ]
}
