{
    "asset" : {
        "generator" : "Khronos glTF Blender I/O v1.5.17",
        "version" : "2.0"
    },
    "scene" : 0,
    "scenes" : [
        {
            "name" : "Scene",
            "nodes" : [
                0,
                1,
                2,
                3,
                4,
                5,
                6,
                7,
                8,
                9
            ]
        }
    ],
    "nodes" : [
        {
            "mesh" : 0,
            "name" : "crystal_01",
            "rotation" : [
                0,
                0,
                0.2588190734386444,
                0.965925931930542
            ],
            "scale" : [
                0.03364255651831627,
                0.03364255651831627,
                0.03364255651831627
            ]
        },
        {
            "mesh" : 1,
            "name" : "crystal_02",
            "rotation" : [
                0,
                0,
                0.2588190734386444,
                0.965925931930542
            ],
            "scale" : [
                0.03364255651831627,
                0.03364255651831627,
                0.03364255651831627
            ]
        },
        {
            "mesh" : 2,
            "name" : "crystal_03",
            "rotation" : [
                0,
                0,
                0.2588190734386444,
                0.965925931930542
            ],
            "scale" : [
                0.03364255651831627,
                0.03364255651831627,
                0.03364255651831627
            ]
        },
        {
            "mesh" : 3,
            "name" : "crystal_07",
            "rotation" : [
                0,
                0,
                0.2588190734386444,
                0.965925931930542
            ],
            "scale" : [
                0.03364255651831627,
                0.03364255651831627,
                0.03364255651831627
            ]
        },
        {
            "mesh" : 4,
            "name" : "crystal_06",
            "rotation" : [
                0,
                0,
                0.2588190734386444,
                0.965925931930542
            ],
            "scale" : [
                0.03364255651831627,
                0.03364255651831627,
                0.03364255651831627
            ]
        },
        {
            "mesh" : 5,
            "name" : "crystal_04",
            "rotation" : [
                0,
                0,
                0.2588190734386444,
                0.965925931930542
            ],
            "scale" : [
                0.03364255651831627,
                0.03364255651831627,
                0.03364255651831627
            ]
        },
        {
            "mesh" : 6,
            "name" : "crystal_08",
            "rotation" : [
                0,
                0,
                0.2588190734386444,
                0.965925931930542
            ],
            "scale" : [
                0.03364255651831627,
                0.03364255651831627,
                0.03364255651831627
            ]
        },
        {
            "mesh" : 7,
            "name" : "crystal_10",
            "rotation" : [
                0,
                0,
                0.2588190734386444,
                0.965925931930542
            ],
            "scale" : [
                0.03364255651831627,
                0.03364255651831627,
                0.03364255651831627
            ]
        },
        {
            "mesh" : 8,
            "name" : "crystal_05",
            "rotation" : [
                0,
                0,
                0.2588190734386444,
                0.965925931930542
            ],
            "scale" : [
                0.03364255651831627,
                0.03364255651831627,
                0.03364255651831627
            ]
        },
        {
            "mesh" : 9,
            "name" : "crystal_09",
            "rotation" : [
                0,
                0,
                0.2588190734386444,
                0.965925931930542
            ],
            "scale" : [
                0.03364255651831627,
                0.03364255651831627,
                0.03364255651831627
            ]
        }
    ],
    "materials" : [
        {
            "doubleSided" : true,
            "name" : "Crystal",
            "pbrMetallicRoughness" : {
                "metallicFactor" : 0.30000001192092896,
                "roughnessFactor" : 0
            }
        }
    ],
    "meshes" : [
        {
            "name" : "Circle.002",
            "primitives" : [
                {
                    "attributes" : {
                        "POSITION" : 0,
                        "NORMAL" : 1,
                        "TEXCOORD_0" : 2
                    },
                    "indices" : 3,
                    "material" : 0
                }
            ]
        },
        {
            "name" : "Circle.004",
            "primitives" : [
                {
                    "attributes" : {
                        "POSITION" : 4,
                        "NORMAL" : 5,
                        "TEXCOORD_0" : 6
                    },
                    "indices" : 7,
                    "material" : 0
                }
            ]
        },
        {
            "name" : "Circle.006",
            "primitives" : [
                {
                    "attributes" : {
                        "POSITION" : 8,
                        "NORMAL" : 9,
                        "TEXCOORD_0" : 10
                    },
                    "indices" : 11,
                    "material" : 0
                }
            ]
        },
        {
            "name" : "Circle.007",
            "primitives" : [
                {
                    "attributes" : {
                        "POSITION" : 12,
                        "NORMAL" : 13,
                        "TEXCOORD_0" : 14
                    },
                    "indices" : 15,
                    "material" : 0
                }
            ]
        },
        {
            "name" : "Circle.009",
            "primitives" : [
                {
                    "attributes" : {
                        "POSITION" : 16,
                        "NORMAL" : 17,
                        "TEXCOORD_0" : 18
                    },
                    "indices" : 19,
                    "material" : 0
                }
            ]
        },
        {
            "name" : "Circle.015",
            "primitives" : [
                {
                    "attributes" : {
                        "POSITION" : 20,
                        "NORMAL" : 21,
                        "TEXCOORD_0" : 22
                    },
                    "indices" : 23,
                    "material" : 0
                }
            ]
        },
        {
            "name" : "Circle.018",
            "primitives" : [
                {
                    "attributes" : {
                        "POSITION" : 24,
                        "NORMAL" : 25,
                        "TEXCOORD_0" : 26
                    },
                    "indices" : 27,
                    "material" : 0
                }
            ]
        },
        {
            "name" : "Circle.019",
            "primitives" : [
                {
                    "attributes" : {
                        "POSITION" : 28,
                        "NORMAL" : 29,
                        "TEXCOORD_0" : 30
                    },
                    "indices" : 31,
                    "material" : 0
                }
            ]
        },
        {
            "name" : "Circle.023",
            "primitives" : [
                {
                    "attributes" : {
                        "POSITION" : 32,
                        "NORMAL" : 33,
                        "TEXCOORD_0" : 34
                    },
                    "indices" : 35,
                    "material" : 0
                }
            ]
        },
        {
            "name" : "Circle.028",
            "primitives" : [
                {
                    "attributes" : {
                        "POSITION" : 36,
                        "NORMAL" : 37,
                        "TEXCOORD_0" : 38
                    },
                    "indices" : 39,
                    "material" : 0
                }
            ]
        }
    ],
    "accessors" : [
        {
            "bufferView" : 0,
            "componentType" : 5126,
            "count" : 84,
            "max" : [
                -1.9702329635620117,
                27.20355224609375,
                32.82200622558594
            ],
            "min" : [
                -4.002826690673828,
                21.21121597290039,
                31.326190948486328
            ],
            "type" : "VEC3"
        },
        {
            "bufferView" : 1,
            "componentType" : 5126,
            "count" : 84,
            "type" : "VEC3"
        },
        {
            "bufferView" : 2,
            "componentType" : 5126,
            "count" : 84,
            "type" : "VEC2"
        },
        {
            "bufferView" : 3,
            "componentType" : 5123,
            "count" : 132,
            "type" : "SCALAR"
        },
        {
            "bufferView" : 4,
            "componentType" : 5126,
            "count" : 84,
            "max" : [
                14.795408248901367,
                -22.68360137939453,
                18.248390197753906
            ],
            "min" : [
                10.584941864013672,
                -25.281444549560547,
                15.145431518554688
            ],
            "type" : "VEC3"
        },
        {
            "bufferView" : 5,
            "componentType" : 5126,
            "count" : 84,
            "type" : "VEC3"
        },
        {
            "bufferView" : 6,
            "componentType" : 5126,
            "count" : 84,
            "type" : "VEC2"
        },
        {
            "bufferView" : 7,
            "componentType" : 5123,
            "count" : 132,
            "type" : "SCALAR"
        },
        {
            "bufferView" : 8,
            "componentType" : 5126,
            "count" : 84,
            "max" : [
                -17.41880226135254,
                5.144831657409668,
                51.578041076660156
            ],
            "min" : [
                -20.31783103942871,
                -2.7777140140533447,
                49.376625061035156
            ],
            "type" : "VEC3"
        },
        {
            "bufferView" : 9,
            "componentType" : 5126,
            "count" : 84,
            "type" : "VEC3"
        },
        {
            "bufferView" : 10,
            "componentType" : 5126,
            "count" : 84,
            "type" : "VEC2"
        },
        {
            "bufferView" : 11,
            "componentType" : 5123,
            "count" : 132,
            "type" : "SCALAR"
        },
        {
            "bufferView" : 12,
            "componentType" : 5126,
            "count" : 84,
            "max" : [
                -35.34339904785156,
                13.989641189575195,
                16.110126495361328
            ],
            "min" : [
                -39.097862243652344,
                10.943849563598633,
                13.926715850830078
            ],
            "type" : "VEC3"
        },
        {
            "bufferView" : 13,
            "componentType" : 5126,
            "count" : 84,
            "type" : "VEC3"
        },
        {
            "bufferView" : 14,
            "componentType" : 5126,
            "count" : 84,
            "type" : "VEC2"
        },
        {
            "bufferView" : 15,
            "componentType" : 5123,
            "count" : 132,
            "type" : "SCALAR"
        },
        {
            "bufferView" : 16,
            "componentType" : 5126,
            "count" : 84,
            "max" : [
                26.15314292907715,
                -4.100774765014648,
                45.09917449951172
            ],
            "min" : [
                23.286684036254883,
                -9.515416145324707,
                43.05548095703125
            ],
            "type" : "VEC3"
        },
        {
            "bufferView" : 17,
            "componentType" : 5126,
            "count" : 84,
            "type" : "VEC3"
        },
        {
            "bufferView" : 18,
            "componentType" : 5126,
            "count" : 84,
            "type" : "VEC2"
        },
        {
            "bufferView" : 19,
            "componentType" : 5123,
            "count" : 132,
            "type" : "SCALAR"
        },
        {
            "bufferView" : 20,
            "componentType" : 5126,
            "count" : 252,
            "max" : [
                -16.41643714904785,
                22.2050724029541,
                3.3849639892578125
            ],
            "min" : [
                -23.260520935058594,
                11.084935188293457,
                -2.5439796447753906
            ],
            "type" : "VEC3"
        },
        {
            "bufferView" : 21,
            "componentType" : 5126,
            "count" : 252,
            "type" : "VEC3"
        },
        {
            "bufferView" : 22,
            "componentType" : 5126,
            "count" : 252,
            "type" : "VEC2"
        },
        {
            "bufferView" : 23,
            "componentType" : 5123,
            "count" : 396,
            "type" : "SCALAR"
        },
        {
            "bufferView" : 24,
            "componentType" : 5126,
            "count" : 168,
            "max" : [
                32.46222686767578,
                -27.25420379638672,
                14.84378433227539
            ],
            "min" : [
                26.72505760192871,
                -32.42536163330078,
                10.269586563110352
            ],
            "type" : "VEC3"
        },
        {
            "bufferView" : 25,
            "componentType" : 5126,
            "count" : 168,
            "type" : "VEC3"
        },
        {
            "bufferView" : 26,
            "componentType" : 5126,
            "count" : 168,
            "type" : "VEC2"
        },
        {
            "bufferView" : 27,
            "componentType" : 5123,
            "count" : 264,
            "type" : "SCALAR"
        },
        {
            "bufferView" : 28,
            "componentType" : 5126,
            "count" : 336,
            "max" : [
                -11.586913108825684,
                8.503477096557617,
                14.375102996826172
            ],
            "min" : [
                -17.283945083618164,
                -0.8886418342590332,
                9.060140609741211
            ],
            "type" : "VEC3"
        },
        {
            "bufferView" : 29,
            "componentType" : 5126,
            "count" : 336,
            "type" : "VEC3"
        },
        {
            "bufferView" : 30,
            "componentType" : 5126,
            "count" : 336,
            "type" : "VEC2"
        },
        {
            "bufferView" : 31,
            "componentType" : 5123,
            "count" : 528,
            "type" : "SCALAR"
        },
        {
            "bufferView" : 32,
            "componentType" : 5126,
            "count" : 252,
            "max" : [
                29.6227970123291,
                6.695227146148682,
                29.45020866394043
            ],
            "min" : [
                21.123424530029297,
                0.43256258964538574,
                24.792600631713867
            ],
            "type" : "VEC3"
        },
        {
            "bufferView" : 33,
            "componentType" : 5126,
            "count" : 252,
            "type" : "VEC3"
        },
        {
            "bufferView" : 34,
            "componentType" : 5126,
            "count" : 252,
            "type" : "VEC2"
        },
        {
            "bufferView" : 35,
            "componentType" : 5123,
            "count" : 396,
            "type" : "SCALAR"
        },
        {
            "bufferView" : 36,
            "componentType" : 5126,
            "count" : 252,
            "max" : [
                17.37963104248047,
                -2.2697649002075195,
                36.55314636230469
            ],
            "min" : [
                9.468890190124512,
                -11.218744277954102,
                31.46658706665039
            ],
            "type" : "VEC3"
        },
        {
            "bufferView" : 37,
            "componentType" : 5126,
            "count" : 252,
            "type" : "VEC3"
        },
        {
            "bufferView" : 38,
            "componentType" : 5126,
            "count" : 252,
            "type" : "VEC2"
        },
        {
            "bufferView" : 39,
            "componentType" : 5123,
            "count" : 396,
            "type" : "SCALAR"
        }
    ],
    "bufferViews" : [
        {
            "buffer" : 0,
            "byteLength" : 1008,
            "byteOffset" : 0
        },
        {
            "buffer" : 0,
            "byteLength" : 1008,
            "byteOffset" : 1008
        },
        {
            "buffer" : 0,
            "byteLength" : 672,
            "byteOffset" : 2016
        },
        {
            "buffer" : 0,
            "byteLength" : 264,
            "byteOffset" : 2688
        },
        {
            "buffer" : 0,
            "byteLength" : 1008,
            "byteOffset" : 2952
        },
        {
            "buffer" : 0,
            "byteLength" : 1008,
            "byteOffset" : 3960
        },
        {
            "buffer" : 0,
            "byteLength" : 672,
            "byteOffset" : 4968
        },
        {
            "buffer" : 0,
            "byteLength" : 264,
            "byteOffset" : 5640
        },
        {
            "buffer" : 0,
            "byteLength" : 1008,
            "byteOffset" : 5904
        },
        {
            "buffer" : 0,
            "byteLength" : 1008,
            "byteOffset" : 6912
        },
        {
            "buffer" : 0,
            "byteLength" : 672,
            "byteOffset" : 7920
        },
        {
            "buffer" : 0,
            "byteLength" : 264,
            "byteOffset" : 8592
        },
        {
            "buffer" : 0,
            "byteLength" : 1008,
            "byteOffset" : 8856
        },
        {
            "buffer" : 0,
            "byteLength" : 1008,
            "byteOffset" : 9864
        },
        {
            "buffer" : 0,
            "byteLength" : 672,
            "byteOffset" : 10872
        },
        {
            "buffer" : 0,
            "byteLength" : 264,
            "byteOffset" : 11544
        },
        {
            "buffer" : 0,
            "byteLength" : 1008,
            "byteOffset" : 11808
        },
        {
            "buffer" : 0,
            "byteLength" : 1008,
            "byteOffset" : 12816
        },
        {
            "buffer" : 0,
            "byteLength" : 672,
            "byteOffset" : 13824
        },
        {
            "buffer" : 0,
            "byteLength" : 264,
            "byteOffset" : 14496
        },
        {
            "buffer" : 0,
            "byteLength" : 3024,
            "byteOffset" : 14760
        },
        {
            "buffer" : 0,
            "byteLength" : 3024,
            "byteOffset" : 17784
        },
        {
            "buffer" : 0,
            "byteLength" : 2016,
            "byteOffset" : 20808
        },
        {
            "buffer" : 0,
            "byteLength" : 792,
            "byteOffset" : 22824
        },
        {
            "buffer" : 0,
            "byteLength" : 2016,
            "byteOffset" : 23616
        },
        {
            "buffer" : 0,
            "byteLength" : 2016,
            "byteOffset" : 25632
        },
        {
            "buffer" : 0,
            "byteLength" : 1344,
            "byteOffset" : 27648
        },
        {
            "buffer" : 0,
            "byteLength" : 528,
            "byteOffset" : 28992
        },
        {
            "buffer" : 0,
            "byteLength" : 4032,
            "byteOffset" : 29520
        },
        {
            "buffer" : 0,
            "byteLength" : 4032,
            "byteOffset" : 33552
        },
        {
            "buffer" : 0,
            "byteLength" : 2688,
            "byteOffset" : 37584
        },
        {
            "buffer" : 0,
            "byteLength" : 1056,
            "byteOffset" : 40272
        },
        {
            "buffer" : 0,
            "byteLength" : 3024,
            "byteOffset" : 41328
        },
        {
            "buffer" : 0,
            "byteLength" : 3024,
            "byteOffset" : 44352
        },
        {
            "buffer" : 0,
            "byteLength" : 2016,
            "byteOffset" : 47376
        },
        {
            "buffer" : 0,
            "byteLength" : 792,
            "byteOffset" : 49392
        },
        {
            "buffer" : 0,
            "byteLength" : 3024,
            "byteOffset" : 50184
        },
        {
            "buffer" : 0,
            "byteLength" : 3024,
            "byteOffset" : 53208
        },
        {
            "buffer" : 0,
            "byteLength" : 2016,
            "byteOffset" : 56232
        },
        {
            "buffer" : 0,
            "byteLength" : 792,
            "byteOffset" : 58248
        }
    ],
    "buffers" : [
        {
            "byteLength" : 59040,
            "uri" : "data:application/octet-stream;base64,"
        }
    ]
}
