{
    "asset" : {
        "generator" : "Khronos glTF Blender I/O v1.3.48",
        "version" : "2.0"
    },
    "scene" : 0,
    "scenes" : [
        {
            "name" : "Scene",
            "nodes" : [
                0
            ]
        }
    ],
    "nodes" : [
        {
            "mesh" : 0,
            "name" : "COLONNE EROTIQUE.013",
            "rotation" : [
                0.6614511609077454,
                0.19076772034168243,
                -0.17955835163593292,
                0.7027438282966614
            ],
            "scale" : [
                -0.08326884359121323,
                -0.08326884359121323,
                -0.08326884359121323
            ],
            "translation" : [
                0.003656744956970215,
                0.0011671781539916992,
                -0.0008045220747590065
            ]
        }
    ],
    "meshes" : [
        {
            "name" : "Cylinder.026",
            "primitives" : [
                {
                    "attributes" : {
                        "POSITION" : 0,
                        "NORMAL" : 1,
                        "TEXCOORD_0" : 2
                    },
                    "indices" : 3
                }
            ]
        }
    ],
    "accessors" : [
        {
            "bufferView" : 0,
            "componentType" : 5126,
            "count" : 5726,
            "max" : [
                28.838422775268555,
                -0.04549050331115723,
                5.648874759674072
            ],
            "min" : [
                -12.487727165222168,
                -37.20453643798828,
                -12.885051727294922
            ],
            "type" : "VEC3"
        },
        {
            "bufferView" : 1,
            "componentType" : 5126,
            "count" : 5726,
            "type" : "VEC3"
        },
        {
            "bufferView" : 2,
            "componentType" : 5126,
            "count" : 5726,
            "type" : "VEC2"
        },
        {
            "bufferView" : 3,
            "componentType" : 5123,
            "count" : 9408,
            "type" : "SCALAR"
        }
    ],
    "bufferViews" : [
        {
            "buffer" : 0,
            "byteLength" : 68712,
            "byteOffset" : 0
        },
        {
            "buffer" : 0,
            "byteLength" : 68712,
            "byteOffset" : 68712
        },
        {
            "buffer" : 0,
            "byteLength" : 45808,
            "byteOffset" : 137424
        },
        {
            "buffer" : 0,
            "byteLength" : 18816,
            "byteOffset" : 183232
        }
    ],
    "buffers" : [
        {
            "byteLength" : 202048,
            "uri" : "data:application/octet-stream;base64,"
        }
    ]
}
