{
    "asset" : {
        "generator" : "Khronos glTF Blender I/O v1.3.48",
        "version" : "2.0"
    },
    "scene" : 0,
    "scenes" : [
        {
            "name" : "Scene",
            "nodes" : [
                0,
                1,
                2,
                3,
                4,
                5,
                6,
                7,
                8,
                9
            ]
        }
    ],
    "nodes" : [
        {
            "mesh" : 0,
            "name" : "COLONNE 04",
            "scale" : [
                -0.08326884359121323,
                -0.08326884359121323,
                -0.08326884359121323
            ],
            "translation" : [
                0.0008265972137451172,
                -0.06005255877971649,
                0.0038899481296539307
            ]
        },
        {
            "mesh" : 1,
            "name" : "COLONNE 10",
            "scale" : [
                -0.08326884359121323,
                -0.08326884359121323,
                -0.08326884359121323
            ],
            "translation" : [
                -0.0004656687378883362,
                -0.06005255877971649,
                0.0036022067070007324
            ]
        },
        {
            "mesh" : 2,
            "name" : "COLONNE 09",
            "scale" : [
                -0.08326884359121323,
                -0.08326884359121323,
                -0.08326884359121323
            ],
            "translation" : [
                0.0006102509796619415,
                0.00033017247915267944,
                0
            ]
        },
        {
            "mesh" : 3,
            "name" : "COLONNE 03",
            "scale" : [
                -0.08326884359121323,
                -0.08326884359121323,
                -0.08326884359121323
            ],
            "translation" : [
                0.005454845726490021,
                -0.001301787793636322,
                -0.002118319272994995
            ]
        },
        {
            "mesh" : 4,
            "name" : "COLONNE 02",
            "scale" : [
                -0.08326884359121323,
                -0.08326884359121323,
                -0.08326884359121323
            ],
            "translation" : [
                0.0011359453201293945,
                0.000656571239233017,
                -0.0011343955993652344
            ]
        },
        {
            "mesh" : 5,
            "name" : "COLONNE 01",
            "rotation" : [
                -0.23379306495189667,
                0.26199859380722046,
                -0.5161784291267395,
                0.7811897397041321
            ],
            "scale" : [
                -0.08326884359121323,
                -0.08326884359121323,
                -0.08326884359121323
            ],
            "translation" : [
                0.0067086368799209595,
                -0.0009958148002624512,
                -0.004597187042236328
            ]
        },
        {
            "mesh" : 6,
            "name" : "COLONNE 05",
            "rotation" : [
                0.6121421456336975,
                -0.32753244042396545,
                0.3082869052886963,
                0.6503565907478333
            ],
            "scale" : [
                -0.08326884359121323,
                -0.08326884359121323,
                -0.08326884359121323
            ],
            "translation" : [
                -0.0005761384963989258,
                -0.0003591775894165039,
                0.0038949251174926758
            ]
        },
        {
            "mesh" : 7,
            "name" : "COLONNE 06",
            "rotation" : [
                0.0021695736795663834,
                0.04529641196131706,
                0.14442166686058044,
                0.988476574420929
            ],
            "scale" : [
                -0.08326884359121323,
                -0.08326884359121323,
                -0.08326884359121323
            ],
            "translation" : [
                0.00182342529296875,
                0.0029927492141723633,
                -0.0034105777740478516
            ]
        },
        {
            "mesh" : 8,
            "name" : "COLONNE 07",
            "scale" : [
                0.0827062726020813,
                0.0827062726020813,
                0.0827062726020813
            ],
            "translation" : [
                -8.602440357208252e-05,
                -0.000579535961151123,
                -0.00033664703369140625
            ]
        },
        {
            "mesh" : 9,
            "name" : "COLONNE 08",
            "rotation" : [
                -0.003301204415038228,
                0.010106067173182964,
                -0.9945630431175232,
                0.10359195619821548
            ],
            "scale" : [
                -0.08326884359121323,
                -0.08326884359121323,
                -0.08326884359121323
            ],
            "translation" : [
                -0.0035990700125694275,
                0.0019341707229614258,
                -0.003514409065246582
            ]
        }
    ],
    "meshes" : [
        {
            "name" : "Cylinder.006",
            "primitives" : [
                {
                    "attributes" : {
                        "POSITION" : 0,
                        "NORMAL" : 1,
                        "TEXCOORD_0" : 2
                    },
                    "indices" : 3
                }
            ]
        },
        {
            "name" : "Cylinder.013",
            "primitives" : [
                {
                    "attributes" : {
                        "POSITION" : 4,
                        "NORMAL" : 5,
                        "TEXCOORD_0" : 6
                    },
                    "indices" : 7
                }
            ]
        },
        {
            "name" : "Cylinder.018",
            "primitives" : [
                {
                    "attributes" : {
                        "POSITION" : 8,
                        "NORMAL" : 9,
                        "TEXCOORD_0" : 10
                    },
                    "indices" : 11
                }
            ]
        },
        {
            "name" : "Cylinder.020",
            "primitives" : [
                {
                    "attributes" : {
                        "POSITION" : 12,
                        "NORMAL" : 13,
                        "TEXCOORD_0" : 14
                    },
                    "indices" : 15
                }
            ]
        },
        {
            "name" : "Cylinder.021",
            "primitives" : [
                {
                    "attributes" : {
                        "POSITION" : 16,
                        "NORMAL" : 17,
                        "TEXCOORD_0" : 18
                    },
                    "indices" : 19
                }
            ]
        },
        {
            "name" : "Cylinder.022",
            "primitives" : [
                {
                    "attributes" : {
                        "POSITION" : 20,
                        "NORMAL" : 21,
                        "TEXCOORD_0" : 22
                    },
                    "indices" : 23
                }
            ]
        },
        {
            "name" : "Cylinder.023",
            "primitives" : [
                {
                    "attributes" : {
                        "POSITION" : 24,
                        "NORMAL" : 25,
                        "TEXCOORD_0" : 26
                    },
                    "indices" : 27
                }
            ]
        },
        {
            "name" : "Cylinder.027",
            "primitives" : [
                {
                    "attributes" : {
                        "POSITION" : 28,
                        "NORMAL" : 29,
                        "TEXCOORD_0" : 30
                    },
                    "indices" : 27
                }
            ]
        },
        {
            "name" : "Cylinder.003",
            "primitives" : [
                {
                    "attributes" : {
                        "POSITION" : 31,
                        "NORMAL" : 32,
                        "TEXCOORD_0" : 33
                    },
                    "indices" : 34
                }
            ]
        },
        {
            "name" : "Cylinder.008",
            "primitives" : [
                {
                    "attributes" : {
                        "POSITION" : 35,
                        "NORMAL" : 36,
                        "TEXCOORD_0" : 37
                    },
                    "indices" : 38
                }
            ]
        }
    ],
    "accessors" : [
        {
            "bufferView" : 0,
            "componentType" : 5126,
            "count" : 1064,
            "max" : [
                -6.876372814178467,
                7.877082824707031,
                -22.157899856567383
            ],
            "min" : [
                -9.459023475646973,
                -6.419407367706299,
                -24.740549087524414
            ],
            "type" : "VEC3"
        },
        {
            "bufferView" : 1,
            "componentType" : 5126,
            "count" : 1064,
            "type" : "VEC3"
        },
        {
            "bufferView" : 2,
            "componentType" : 5126,
            "count" : 1064,
            "type" : "VEC2"
        },
        {
            "bufferView" : 3,
            "componentType" : 5123,
            "count" : 1764,
            "type" : "SCALAR"
        },
        {
            "bufferView" : 4,
            "componentType" : 5126,
            "count" : 806,
            "max" : [
                -6.243556976318359,
                7.877082824707031,
                5.72573184967041
            ],
            "min" : [
                -8.674575805664062,
                -6.419407844543457,
                3.4219179153442383
            ],
            "type" : "VEC3"
        },
        {
            "bufferView" : 5,
            "componentType" : 5126,
            "count" : 806,
            "type" : "VEC3"
        },
        {
            "bufferView" : 6,
            "componentType" : 5126,
            "count" : 806,
            "type" : "VEC2"
        },
        {
            "bufferView" : 7,
            "componentType" : 5123,
            "count" : 1386,
            "type" : "SCALAR"
        },
        {
            "bufferView" : 8,
            "componentType" : 5126,
            "count" : 1216,
            "max" : [
                8.598783493041992,
                9.253085136413574,
                5.682491779327393
            ],
            "min" : [
                3.1010680198669434,
                -5.694253921508789,
                0.9896106719970703
            ],
            "type" : "VEC3"
        },
        {
            "bufferView" : 9,
            "componentType" : 5126,
            "count" : 1216,
            "type" : "VEC3"
        },
        {
            "bufferView" : 10,
            "componentType" : 5126,
            "count" : 1216,
            "type" : "VEC2"
        },
        {
            "bufferView" : 11,
            "componentType" : 5123,
            "count" : 2022,
            "type" : "SCALAR"
        },
        {
            "bufferView" : 12,
            "componentType" : 5126,
            "count" : 1247,
            "max" : [
                9.228981971740723,
                8.852409362792969,
                -22.309463500976562
            ],
            "min" : [
                5.722104072570801,
                -4.594598293304443,
                -25.197206497192383
            ],
            "type" : "VEC3"
        },
        {
            "bufferView" : 13,
            "componentType" : 5126,
            "count" : 1247,
            "type" : "VEC3"
        },
        {
            "bufferView" : 14,
            "componentType" : 5126,
            "count" : 1247,
            "type" : "VEC2"
        },
        {
            "bufferView" : 15,
            "componentType" : 5123,
            "count" : 2862,
            "type" : "SCALAR"
        },
        {
            "bufferView" : 16,
            "componentType" : 5126,
            "count" : 374,
            "max" : [
                8.670355796813965,
                8.036925315856934,
                -36.06367492675781
            ],
            "min" : [
                6.670355796813965,
                -2.6990911960601807,
                -38.06367492675781
            ],
            "type" : "VEC3"
        },
        {
            "bufferView" : 17,
            "componentType" : 5126,
            "count" : 374,
            "type" : "VEC3"
        },
        {
            "bufferView" : 18,
            "componentType" : 5126,
            "count" : 374,
            "type" : "VEC2"
        },
        {
            "bufferView" : 19,
            "componentType" : 5123,
            "count" : 684,
            "type" : "SCALAR"
        },
        {
            "bufferView" : 20,
            "componentType" : 5126,
            "count" : 1346,
            "max" : [
                9.070951461791992,
                24.565460205078125,
                -29.72289276123047
            ],
            "min" : [
                -4.932009220123291,
                14.468169212341309,
                -35.407623291015625
            ],
            "type" : "VEC3"
        },
        {
            "bufferView" : 21,
            "componentType" : 5126,
            "count" : 1346,
            "type" : "VEC3"
        },
        {
            "bufferView" : 22,
            "componentType" : 5126,
            "count" : 1346,
            "type" : "VEC2"
        },
        {
            "bufferView" : 23,
            "componentType" : 5123,
            "count" : 2274,
            "type" : "SCALAR"
        },
        {
            "bufferView" : 24,
            "componentType" : 5126,
            "count" : 480,
            "max" : [
                -2.0628502368927,
                -19.475135803222656,
                -3.7118682861328125
            ],
            "min" : [
                -7.579257011413574,
                -28.989418029785156,
                -10.351388931274414
            ],
            "type" : "VEC3"
        },
        {
            "bufferView" : 25,
            "componentType" : 5126,
            "count" : 480,
            "type" : "VEC3"
        },
        {
            "bufferView" : 26,
            "componentType" : 5126,
            "count" : 480,
            "type" : "VEC2"
        },
        {
            "bufferView" : 27,
            "componentType" : 5123,
            "count" : 744,
            "type" : "SCALAR"
        },
        {
            "bufferView" : 28,
            "componentType" : 5126,
            "count" : 480,
            "max" : [
                -12.313984870910645,
                14.251835823059082,
                -12.678897857666016
            ],
            "min" : [
                -18.32240867614746,
                8.427570343017578,
                -22.25215721130371
            ],
            "type" : "VEC3"
        },
        {
            "bufferView" : 29,
            "componentType" : 5126,
            "count" : 480,
            "type" : "VEC3"
        },
        {
            "bufferView" : 30,
            "componentType" : 5126,
            "count" : 480,
            "type" : "VEC2"
        },
        {
            "bufferView" : 31,
            "componentType" : 5126,
            "count" : 908,
            "max" : [
                1.3641281127929688,
                -2.7332568168640137,
                14.743492126464844
            ],
            "min" : [
                -8.565299034118652,
                -8.650076866149902,
                7.551115989685059
            ],
            "type" : "VEC3"
        },
        {
            "bufferView" : 32,
            "componentType" : 5126,
            "count" : 908,
            "type" : "VEC3"
        },
        {
            "bufferView" : 33,
            "componentType" : 5126,
            "count" : 908,
            "type" : "VEC2"
        },
        {
            "bufferView" : 34,
            "componentType" : 5123,
            "count" : 1530,
            "type" : "SCALAR"
        },
        {
            "bufferView" : 35,
            "componentType" : 5126,
            "count" : 669,
            "max" : [
                10.657088279724121,
                -0.5999072194099426,
                -8.460533142089844
            ],
            "min" : [
                4.1630024909973145,
                -12.078873634338379,
                -11.870166778564453
            ],
            "type" : "VEC3"
        },
        {
            "bufferView" : 36,
            "componentType" : 5126,
            "count" : 669,
            "type" : "VEC3"
        },
        {
            "bufferView" : 37,
            "componentType" : 5126,
            "count" : 669,
            "type" : "VEC2"
        },
        {
            "bufferView" : 38,
            "componentType" : 5123,
            "count" : 1488,
            "type" : "SCALAR"
        }
    ],
    "bufferViews" : [
        {
            "buffer" : 0,
            "byteLength" : 12768,
            "byteOffset" : 0
        },
        {
            "buffer" : 0,
            "byteLength" : 12768,
            "byteOffset" : 12768
        },
        {
            "buffer" : 0,
            "byteLength" : 8512,
            "byteOffset" : 25536
        },
        {
            "buffer" : 0,
            "byteLength" : 3528,
            "byteOffset" : 34048
        },
        {
            "buffer" : 0,
            "byteLength" : 9672,
            "byteOffset" : 37576
        },
        {
            "buffer" : 0,
            "byteLength" : 9672,
            "byteOffset" : 47248
        },
        {
            "buffer" : 0,
            "byteLength" : 6448,
            "byteOffset" : 56920
        },
        {
            "buffer" : 0,
            "byteLength" : 2772,
            "byteOffset" : 63368
        },
        {
            "buffer" : 0,
            "byteLength" : 14592,
            "byteOffset" : 66140
        },
        {
            "buffer" : 0,
            "byteLength" : 14592,
            "byteOffset" : 80732
        },
        {
            "buffer" : 0,
            "byteLength" : 9728,
            "byteOffset" : 95324
        },
        {
            "buffer" : 0,
            "byteLength" : 4044,
            "byteOffset" : 105052
        },
        {
            "buffer" : 0,
            "byteLength" : 14964,
            "byteOffset" : 109096
        },
        {
            "buffer" : 0,
            "byteLength" : 14964,
            "byteOffset" : 124060
        },
        {
            "buffer" : 0,
            "byteLength" : 9976,
            "byteOffset" : 139024
        },
        {
            "buffer" : 0,
            "byteLength" : 5724,
            "byteOffset" : 149000
        },
        {
            "buffer" : 0,
            "byteLength" : 4488,
            "byteOffset" : 154724
        },
        {
            "buffer" : 0,
            "byteLength" : 4488,
            "byteOffset" : 159212
        },
        {
            "buffer" : 0,
            "byteLength" : 2992,
            "byteOffset" : 163700
        },
        {
            "buffer" : 0,
            "byteLength" : 1368,
            "byteOffset" : 166692
        },
        {
            "buffer" : 0,
            "byteLength" : 16152,
            "byteOffset" : 168060
        },
        {
            "buffer" : 0,
            "byteLength" : 16152,
            "byteOffset" : 184212
        },
        {
            "buffer" : 0,
            "byteLength" : 10768,
            "byteOffset" : 200364
        },
        {
            "buffer" : 0,
            "byteLength" : 4548,
            "byteOffset" : 211132
        },
        {
            "buffer" : 0,
            "byteLength" : 5760,
            "byteOffset" : 215680
        },
        {
            "buffer" : 0,
            "byteLength" : 5760,
            "byteOffset" : 221440
        },
        {
            "buffer" : 0,
            "byteLength" : 3840,
            "byteOffset" : 227200
        },
        {
            "buffer" : 0,
            "byteLength" : 1488,
            "byteOffset" : 231040
        },
        {
            "buffer" : 0,
            "byteLength" : 5760,
            "byteOffset" : 232528
        },
        {
            "buffer" : 0,
            "byteLength" : 5760,
            "byteOffset" : 238288
        },
        {
            "buffer" : 0,
            "byteLength" : 3840,
            "byteOffset" : 244048
        },
        {
            "buffer" : 0,
            "byteLength" : 10896,
            "byteOffset" : 247888
        },
        {
            "buffer" : 0,
            "byteLength" : 10896,
            "byteOffset" : 258784
        },
        {
            "buffer" : 0,
            "byteLength" : 7264,
            "byteOffset" : 269680
        },
        {
            "buffer" : 0,
            "byteLength" : 3060,
            "byteOffset" : 276944
        },
        {
            "buffer" : 0,
            "byteLength" : 8028,
            "byteOffset" : 280004
        },
        {
            "buffer" : 0,
            "byteLength" : 8028,
            "byteOffset" : 288032
        },
        {
            "buffer" : 0,
            "byteLength" : 5352,
            "byteOffset" : 296060
        },
        {
            "buffer" : 0,
            "byteLength" : 2976,
            "byteOffset" : 301412
        }
    ],
    "buffers" : [
        {
            "byteLength" : 304388,
            "uri" : "data:application/octet-stream;base64,"
        }
    ]
}
